/* XPM */
static char *b1[] = {
/* columns rows colors chars-per-pixel */
"45 45 178 2 ",
"   c None",
".  c #0D0D12",
"X  c #0F1016",
"o  c #111317",
"O  c #12151B",
"+  c #15191F",
"@  c #161720",
"#  c #1B1C24",
"$  c #1E1F29",
"%  c #182D2D",
"&  c #1A3635",
"*  c #222125",
"=  c #342E2C",
"-  c #4F1F1F",
";  c #511F1F",
":  c #5E1F1F",
">  c #611E1E",
",  c #6A1E1E",
"<  c #741E1E",
"1  c #552020",
"2  c #4F392C",
"3  c #6C2323",
"4  c #632525",
"5  c #772523",
"6  c #6F3333",
"7  c #783B3B",
"8  c #3F413D",
"9  c #41423E",
"0  c #49443B",
"q  c #56493C",
"w  c #214F4C",
"e  c #204947",
"r  c #3F4140",
"t  c #21524F",
"y  c #235854",
"u  c #27645F",
"i  c #276560",
"p  c #286964",
"a  c #2A726D",
"s  c #2C7C75",
"d  c #2B7F79",
"f  c #444643",
"g  c #494741",
"h  c #454846",
"j  c #4A4A46",
"k  c #464A49",
"l  c #4B4D4C",
"z  c #574F4B",
"x  c #4D504F",
"c  c #5A5045",
"v  c #53524E",
"b  c #5B544B",
"n  c #4B4F50",
"m  c #4E5251",
"M  c #545553",
"N  c #565857",
"B  c #5D5E5E",
"V  c #565958",
"C  c #655B4E",
"Z  c #6C5C4E",
"A  c #645545",
"S  c #755E4E",
"D  c #6A5D53",
"F  c #705954",
"G  c #4C6A5D",
"H  c #73604F",
"J  c #6D6055",
"K  c #69625B",
"L  c #736453",
"P  c #7B6553",
"I  c #7C6A5D",
"U  c #7B6857",
"Y  c #565960",
"T  c #626563",
"R  c #657662",
"E  c #7C726A",
"W  c #787578",
"Q  c #833535",
"!  c #874338",
"~  c #884545",
"^  c #884C47",
"/  c #825443",
"(  c #9A5A47",
")  c #8D5454",
"_  c #905E5E",
"`  c #816655",
"'  c #8C6C53",
"]  c #8A6F58",
"[  c #946D5C",
"{  c #996B59",
"}  c #8E725B",
"|  c #86735F",
" . c #96755B",
".. c #9B7B5F",
"X. c #98765F",
"o. c #B97B5D",
"O. c #826E61",
"+. c #916464",
"@. c #966F68",
"#. c #857265",
"$. c #8C7666",
"%. c #857469",
"&. c #8C7C6B",
"*. c #8E7864",
"=. c #927562",
"-. c #947A64",
";. c #9C7D65",
":. c #927B6D",
">. c #9B7D69",
",. c #9D7161",
"<. c #8E7D74",
"1. c #937872",
"2. c #A17E65",
"3. c #A77969",
"4. c #B67C6E",
"5. c #2D827C",
"6. c #8E896B",
"7. c #9E826D",
"8. c #928A6C",
"9. c #9E8165",
"0. c #968476",
"q. c #9B8373",
"w. c #94867A",
"e. c #95997B",
"r. c #A38465",
"t. c #A5856C",
"y. c #AA856C",
"u. c #A7886C",
"i. c #AC896D",
"p. c #AE8C67",
"a. c #B08B6F",
"s. c #B5936E",
"d. c #A48671",
"f. c #AC8672",
"g. c #A38973",
"h. c #AD8C72",
"j. c #A48C7A",
"k. c #B28D72",
"l. c #B28C72",
"z. c #BA8C79",
"x. c #B58F78",
"c. c #AF9073",
"v. c #B49176",
"b. c #B99176",
"n. c #B5927A",
"m. c #BB957B",
"M. c #BD997E",
"N. c #C28463",
"B. c #C18F7F",
"V. c #C0977D",
"C. c #C0987E",
"Z. c #CCA378",
"A. c #D5AA7D",
"S. c #2E8B84",
"D. c #318B84",
"F. c #33958D",
"G. c #9E8A80",
"H. c #869B80",
"J. c #A48F80",
"K. c #B79A82",
"L. c #BD9C83",
"P. c #B39E89",
"I. c #BA9F8A",
"U. c #B89580",
"Y. c #BDA28A",
"T. c #B9A18A",
"R. c #B5A494",
"E. c #B7AB9E",
"W. c #BAA9A3",
"Q. c #C39D84",
"!. c #C19F8B",
"~. c #C19681",
"^. c #C2A186",
"/. c #C5A389",
"(. c #DEB282",
"). c #CBAE96",
"_. c #E2B584",
"`. c #E8B785",
/* pixels */
"                                        V B N M M m x m m m M                             ",
"                                    M N M M m x k l l l k k m m                           ",
"                                T N M l l x x h g g l h k l l k n                         ",
"                                M M l h g j h g g g g g g k l l x x                       ",
"                              M l v b D L H L J C C b g 8 r g l l M                       ",
"                            M x v | -.>.9.;.;.=.=.-.} P b 9 g g l l M                     ",
"                          M M l L ;.f.f.i.i.t.t.i.r.r...' A 9 g l l n                     ",
"                          M v b -.f.y.f.i.i.i.k.k.f.i.y.9.] c 8 g l l                     ",
"                          M v D t.f.i.i.i.y.i.i.k.k.f.y.r. .P 0 9 g l                     ",
"                          M M -.t.f.f.f.v.k.i.i.k.i.i.y.r...' c 9 g v                     ",
"                          M b u.t.<.0.J.K.M.M.M.b.v.n.M.n.y. .S 0 g v                     ",
"                          M U d.&.&.E %.O.:.n.M.Q.M.U.j.q.%.&.U c j l                     ",
"                          M w.<.%.0.g.t.2.>.f.k.M.v.7.*.$.O.I D Z j l                     ",
"                          E D G.q.d.t.;.Z P 2.y.i.y.t.r.r.t.g.g.I j (.                    ",
"                        2 n.P.n.q.F W j S } %.D 7.>.L z b b J 0.P v (.                    ",
"                      A.p.Q.I.K.v.t.=.` `  .:.[ X.K %.l Y W $.q.W B (.                    ",
"                      (.Q.n.K.T.L.M.k.y.y.2.:.M.k.D 2.=.=.>.>.g._.(.(.                    ",
"                      (.M.{ Y.^.L.Q.M.b.k.y.k.V.M.t.f.k.k.n.n.P.A.(.                      ",
"                        ).M.T./.Q.Q.V.M.k.t.k.k.M.y.x.b.M.M.!.W.Z.                        ",
"                          ).T./.!.Q.~.z.y.y.n.M.M.y.a.n.Q.L.I.R.                          ",
"                          Z.T./.Q.Q.C.k.M.M.!.Q.Q.M.k.M.Q.Q.Q.T.                          ",
"                          e.E.L.Q.M.V.k.M.[ f.v.k.n.b.M.Q.L.T.e.                          ",
"                        F.F.H.L.M.V.C.M.k.3.y.M.y.y.b.M.M.M.L.F.F.                        ",
"                      F.F.F.F.T.M.M.M.n.k.y.k.f.a.t.k.M.M.v.E.F.F.F.                      ",
"                      F.F.F.F.R.L.L.n.v.v.M.M.y.M.n.v.n.L.K.F.F.F.F.F.                    ",
"                    F.F.F.F.F.F.K.M.k.' [ ,.3.y.3.,. .n.M.F.F.F.F.F.F.F.                  ",
"                    d d d p D.F.F.n.v.i.f.z.4.4.B.f.a.f.j.F.F.s a 5.d d                   ",
"                    6.6.8.G S.F.F.t.f.i.t.t.y.y.y.u.f.t.F.F.F.s R 8.6.6.                  ",
"                    _._._.R S.F.F.v.r.i.y.k.v.n.k.i.u.F.F.F.F.s 8.`._._.                  ",
"                  (.(.(._.y D.F.F.F.F.t.i.u.f.f.i.i.i.F.F.F.F.s   _.(.(.(.                ",
"                  (.(.(.  w 5.F.F.F.F.F.F.9.;.;.;.i.s.F.F.F.F.a     (.(.(.                ",
"                  (.(.(.  O & t s F.F.F.F.F.F.F.F.F.F.F.F.D.w %     (.(.(.                ",
"                  (.(.(.  . . . % u i i i i i i i i i i p e o .   _.(.(.(.                ",
"                  A.A.A.  . O # # + + + O O O O O + + + @ $ # O   A.A.A.A.                ",
"                            @ $ $ $ $ % # X   . o # $ $ $ $ # O                           ",
"                            X $ $ $ $ # O         @ $ $ $ $ # .                           ",
"                            q # + + O =           q * + + O * A                           ",
"                            /  .r.r.r.'           /  .r.r.r. ./                           ",
"                            > ( N.N.o.5           < ! N.N.N.! <                           ",
"                            3 > > > > >             > > > > >                             ",
"                            - 1 7 ~ 4 -             ; 6 ~ 6 ; -                           ",
"                            ; 3 ) +.Q >           ; , ~ +.~ , ;                           ",
"                            : 5 _ @.Q ,           ; < ^ 1.^ < ;                           ",
"                              4 3 3 3               : 3 3 3 :                             ",
"                                                                                          "
};
