/* XPM */
static char *b2[] = {
/* columns rows colors chars-per-pixel */
"45 45 186 2 ",
"   c None",
".  c #0E0E13",
"X  c #0F1015",
"o  c #111217",
"O  c #15191E",
"+  c #221C1F",
"@  c #151C20",
"#  c #1B1C25",
"$  c #1D1E29",
"%  c #162628",
"&  c #1A2329",
"*  c #39312A",
"=  c #3B3536",
"-  c #3F3939",
";  c #272526",
":  c #4F1F1F",
">  c #501F1F",
",  c #5B1F1F",
"<  c #611F1F",
"1  c #6B1F1E",
"2  c #7B1E1F",
"3  c #5D201F",
"4  c #542423",
"5  c #562828",
"6  c #5D292A",
"7  c #6C2121",
"8  c #602F2C",
"9  c #682926",
"0  c #772523",
"q  c #6D362D",
"w  c #7F342D",
"e  c #65393A",
"r  c #7F3E3E",
"t  c #3F413D",
"y  c #41423E",
"u  c #49443B",
"i  c #6F4136",
"p  c #604538",
"a  c #744539",
"s  c #3F4140",
"d  c #20504C",
"f  c #235652",
"g  c #265C57",
"h  c #26605C",
"j  c #276560",
"k  c #296762",
"l  c #296B65",
"z  c #30726B",
"x  c #2B7771",
"c  c #2E7F78",
"v  c #444643",
"b  c #494741",
"n  c #454846",
"m  c #4A4A46",
"M  c #464A49",
"N  c #4B4D4C",
"B  c #574F4B",
"V  c #4D504F",
"C  c #5A5045",
"Z  c #53524E",
"A  c #5B544B",
"S  c #4B4F50",
"D  c #4E5151",
"F  c #545553",
"G  c #565857",
"H  c #5F5F5F",
"J  c #675A4D",
"K  c #755E4E",
"L  c #745A42",
"P  c #6A5D53",
"I  c #705954",
"U  c #674646",
"Y  c #73604F",
"T  c #6D6055",
"R  c #69625B",
"E  c #736453",
"W  c #7B6553",
"Q  c #7B695A",
"!  c #565960",
"~  c #5B7564",
"^  c #626563",
"/  c #7C726A",
"(  c #787578",
")  c #647B68",
"_  c #833A3A",
"`  c #9F5744",
"'  c #865555",
"]  c #8C5151",
"[  c #854848",
"{  c #816655",
"}  c #8B6D54",
"|  c #8A6F58",
" . c #976B52",
".. c #956C5B",
"X. c #8C735B",
"o. c #95745B",
"O. c #9B7B5F",
"+. c #98765F",
"@. c #A0765A",
"#. c #826E61",
"$. c #936A63",
"%. c #857265",
"&. c #8C7666",
"*. c #8C7C6B",
"=. c #887567",
"-. c #927562",
";. c #947A64",
":. c #9C7D65",
">. c #927B6D",
",. c #9B7D69",
"<. c #9D7161",
"1. c #8C7673",
"2. c #907F72",
"3. c #A17E65",
"4. c #A77969",
"5. c #B67C6E",
"6. c #2E827C",
"7. c #9E8163",
"8. c #9E826D",
"9. c #968476",
"0. c #9B8373",
"q. c #94867A",
"w. c #919C7F",
"e. c #A38365",
"r. c #A5856C",
"t. c #AA856C",
"y. c #A7886C",
"u. c #AC896D",
"i. c #B18B6C",
"p. c #B8946E",
"a. c #A48671",
"s. c #AC8672",
"d. c #A38973",
"f. c #AD8C72",
"g. c #A48C7A",
"h. c #B28D72",
"j. c #B28C72",
"k. c #BA8C79",
"l. c #B58F78",
"z. c #AA9878",
"x. c #B49176",
"c. c #B99275",
"v. c #BE9A72",
"b. c #B5927A",
"n. c #BC957B",
"m. c #BD997E",
"M. c #B39B75",
"N. c #BEA178",
"B. c #BDA077",
"V. c #C4926C",
"C. c #C18F7F",
"Z. c #C49D74",
"A. c #C0977D",
"S. c #C0987E",
"D. c #CDA579",
"F. c #D3AA7C",
"G. c #DAAE7F",
"H. c #2E8E87",
"J. c #2E8F88",
"K. c #318C85",
"L. c #33958D",
"P. c #3B958B",
"I. c #439589",
"U. c #9E8A80",
"Y. c #A48F80",
"T. c #B79A82",
"R. c #BD9C83",
"E. c #B39E89",
"W. c #BA9F8A",
"Q. c #B89580",
"!. c #A19C9C",
"~. c #BDA28A",
"^. c #B9A18A",
"/. c #B5A494",
"(. c #B7AB9E",
"). c #BAA9A3",
"_. c #C39D84",
"`. c #C19F8B",
"'. c #C19681",
"]. c #C2A186",
"[. c #C5A389",
"{. c #DAAF80",
"}. c #DEB282",
"|. c #CBAE96",
" X c #E1B484",
".X c #E4B886",
/* pixels */
"                                      F G F F D V M N N N M N D D                         ",
"                                  ^ G F N N V V n n n N n n N N N N                       ",
"                                  F F N n n m n n n n n n n M N N N V                     ",
"                                F N Z A P E Y E T J J A b t s n N N F                     ",
"                              F V Z X.;.,.:.:.:.-.-.;.X.W A y y n N N F                   ",
"                            F F N E :.f.f.u.u.y.y.u.e.e.O.} J y y N N S                   ",
"                            F Z A ;.s.t.f.u.u.u.h.h.f.u.t.7.| C t n N N                   ",
"                            F Z P y.f.u.u.u.t.u.u.h.h.f.t.e.o.W b y n N                   ",
"                            F F ;.y.f.f.f.x.h.u.u.h.u.u.t.e.O.} C y n Z                   ",
"                            F A y.y.2.9.Y.T.n.n.n.c.x.b.n.b.t.o.K u n Z                   ",
"                            F Q a.*.*./ =.#.>.b.n._.n.Q.g.0.=.*.Q C m N                   ",
"                            F q.2.=.9.a.y.3.,.f.h.n.x.8.&.&.#.Q T J m N                   ",
"                            / P U.0.a.a.:.J W 3.t.u.t.y.e.e.y.a.a.Q m                     ",
"                          R.b.E.b.0.P ( m K X.#.P 8.,.E B A A T 9.W Z                     ",
"                       Xi.n._.W.T.x.y.-.{ { o.>.o.+.R =.N ! ( &.0.( H Z.                  ",
"                      }. X_.b.T.~.R.n.h.t.t.3.>.n.h.P 3.-.-.,.,.a.L X. X}.                ",
"                      }.}.m...~.].R._.n.c.h.t.h.n.n.y.f.h.h.b.b.E.F.D.}.}.                ",
"                        }.|.m.~.[._._.A.n.h.y.h.h.n.t.l.n.n.m._.).}.}.}.                  ",
"                          D.|.~.[.[._.'.k.t.t.b.n.n.t.i.l._.R.W./.G.D.                    ",
"                            F.^.[._._.S.h.m.n._._._.m.h.n._._._.~.F.                      ",
"                            Z.(.R.].n.A.h.n...f.x.h.b.c.n._.R.~.{.Z.                      ",
"                            ) F.R.m.S.S.n.h.4.t.n.t.t.c.n.n.m.W.D.                        ",
"                        L.L.I.z.~.m.m.m.b.h.t.h.h.h.y.h.n.n.x.(.w.P.                      ",
"                      L.L.L.L.I./.R.R.b.x.x.n.n.t.n.b.x.b.R.T.w.P.L.L.                    ",
"                    L.L.L.L.L.L.I.T.m.h.} ..<.4.t.4.$.+.b.n.w.P.L.L.L.                    ",
"                    L.L.L.L.L.L.L.I.b.x.u.f.k.5.5.C.s.h.f.g.P.6.6.J.H.H.                  ",
"                  L.L.L.K.l K.L.L.L.y.f.u.y.y.t.t.t.y.f.y.L.L.x f ~ ~ ~                   ",
"                  z z z k f K.L.L.L.x.e.u.t.h.x.b.h.u.y.L.L.L.x    X}.}.                  ",
"                  B.N.N.M.f K.L.L.L.L.L.y.u.y.f.f.u.u.u.L.L.L.x     }.}.                  ",
"                   X X X  f K.L.L.L.L.L.L.L.7.:.:.:.u.p.L.L.L.x     }.}.}.                ",
"                }.}.}.}.  d k L.L.L.L.L.L.L.L.L.L.L.L.L.L.L.L.x     }.}.}.                ",
"                  F.F.F.F.  @ g c x c L.L.L.L.L.L.L.L.L.L.L.L.j       }.}.                ",
"                  v.v.v.    . O % % % h j j j j j j j j j k g %       }.}.                ",
"                            X O # O O O O O O O O O O O @ & & O       Z.                  ",
"                            o # $ $ $ # # O . . o # $ $ $ $ # O                           ",
"                              ; - = = = = + . . O $ $ $ $ # O                             ",
"                              p  .p.c.Z.@.9     . O O O # O                               ",
"                                4 i i a 8 ,     e.e.e.7.* O                               ",
"                                  : : : : :   q V..X X X .3                               ",
"                                > > 4 5 4 >   2 w ` ` ` 0 2                               ",
"                                > < ' 1.r , >   6 e e > ,                                 ",
"                                  1 ] $._ < : 5 1.!.' , :                                 ",
"                                    e U 8   > 7 r [ ] 0 >                                 ",
"                                              > > > 7 7 ,                                 ",
"                                                > > : :                                   "
};
