/* XPM */
static char *b3[] = {
/* columns rows colors chars-per-pixel */
"45 45 183 2 ",
"   c None",
".  c #0E0F13",
"X  c #111217",
"o  c #15191E",
"O  c #1C171B",
"+  c #1A1C24",
"@  c #1D1E29",
"#  c #152526",
"$  c #1F222B",
"%  c #162729",
"&  c #183031",
"*  c #332C2E",
"=  c #3C3637",
"-  c #373233",
";  c #4F1F1F",
":  c #501F1F",
">  c #5C1F1F",
",  c #651F1F",
"<  c #741F1F",
"1  c #542222",
"2  c #5A2728",
"3  c #552828",
"4  c #6D2020",
"5  c #752E2E",
"6  c #762626",
"7  c #61322C",
"8  c #66393A",
"9  c #783838",
"0  c #3F413D",
"q  c #41423E",
"w  c #49443B",
"e  c #714337",
"r  c #784438",
"t  c #6B543F",
"y  c #3F4140",
"u  c #23534F",
"i  c #245854",
"p  c #215653",
"a  c #375A52",
"s  c #276560",
"d  c #286662",
"f  c #2F6E67",
"g  c #2B746E",
"h  c #30726B",
"j  c #2B7670",
"k  c #2E7F78",
"l  c #444643",
"z  c #494741",
"x  c #454846",
"c  c #4A4A46",
"v  c #464A49",
"b  c #4B4D4C",
"n  c #574F4B",
"m  c #4D504F",
"M  c #5A5045",
"N  c #53524E",
"B  c #5B544B",
"V  c #4B4F50",
"C  c #4E5151",
"Z  c #545553",
"A  c #565857",
"S  c #5F5F5F",
"D  c #664242",
"F  c #675A4D",
"G  c #755E4E",
"H  c #7D5845",
"J  c #6A5D53",
"K  c #705954",
"L  c #78634D",
"P  c #6D6055",
"I  c #69625B",
"U  c #736453",
"Y  c #7B6553",
"T  c #7B695A",
"R  c #565960",
"E  c #4D6E60",
"W  c #5D7664",
"Q  c #477568",
"!  c #626563",
"~  c #7C726A",
"^  c #787578",
"/  c #863A3A",
"(  c #8F473A",
")  c #91493B",
"_  c #8B5443",
"`  c #8B5757",
"'  c #A15845",
"]  c #816655",
"[  c #8B6D54",
"{  c #8A6F58",
"}  c #956C5B",
"|  c #8E725B",
" . c #86735F",
".. c #95745B",
"X. c #9B7B5F",
"o. c #98765F",
"O. c #A27E5E",
"+. c #826E61",
"@. c #8D6666",
"#. c #966F60",
"$. c #857265",
"%. c #8C7666",
"&. c #8C7C6B",
"*. c #887567",
"=. c #927562",
"-. c #947A64",
";. c #9C7D65",
":. c #927B6D",
">. c #9B7D69",
",. c #9D7161",
"<. c #8E7D74",
"1. c #907F72",
"2. c #A17E65",
"3. c #A77969",
"4. c #B67C6E",
"5. c #9F805E",
"6. c #A4805E",
"7. c #9E826D",
"8. c #9E8165",
"9. c #968476",
"0. c #9B8373",
"q. c #94867A",
"w. c #A38365",
"e. c #A5856C",
"r. c #AA856C",
"t. c #A7886C",
"y. c #AC896D",
"u. c #B08B6F",
"i. c #B5936E",
"p. c #A48671",
"a. c #AC8672",
"s. c #A38973",
"d. c #AD8C72",
"f. c #A48C7A",
"g. c #B28D72",
"h. c #B28C72",
"j. c #BA8C79",
"k. c #B58F78",
"l. c #A99677",
"z. c #B49176",
"x. c #BA9572",
"c. c #B5927A",
"v. c #BC957B",
"b. c #BD997E",
"n. c #AFA17C",
"m. c #BDA077",
"M. c #BDA078",
"N. c #C18F7F",
"B. c #C39D74",
"V. c #C0977D",
"C. c #C0987E",
"Z. c #CEA579",
"A. c #D0A67A",
"S. c #D5AA7D",
"D. c #2E8E87",
"F. c #318C85",
"G. c #33958D",
"H. c #3C948A",
"J. c #4A9689",
"K. c #9D8984",
"L. c #859B80",
"P. c #999393",
"I. c #A48F80",
"U. c #B79A82",
"Y. c #BD9C83",
"T. c #B39E89",
"R. c #BA9F8A",
"E. c #B89580",
"W. c #BDA28A",
"Q. c #B9A18A",
"!. c #B5A494",
"~. c #B7AB9E",
"^. c #BAA9A3",
"/. c #C39D84",
"(. c #C19F8B",
"). c #C19681",
"_. c #C2A186",
"`. c #C5A389",
"'. c #DEB282",
"]. c #CBAE96",
"[. c #E1B483",
"{. c #E4B886",
"}. c #EAB885",
/* pixels */
"                                  Z A Z B m m v b b b v v V C                             ",
"                              ! A Z b b m m v x x b v v b b v b                           ",
"                              Z Z b v x c v x x x x x x v b b m m                         ",
"                            Z b B B J U U U P F F B x 0 y x b b Z                         ",
"                          Z m B  .-.>.;.;.;.=.=.-.| Y M q q x b b Z                       ",
"                        Z Z b U ;.a.a.y.y.e.e.y.w.w.X.[ F q q b b V                       ",
"                        Z B B -.a.r.a.y.y.y.g.g.a.y.r.w.{ M 0 x b b                       ",
"                        Z B J e.a.y.y.y.r.y.y.g.g.a.r.w...Y z q x b                       ",
"                        Z Z -.e.a.a.a.z.g.y.y.g.y.y.r.w.X.[ M q x B                       ",
"                        Z B t.e.<.9.I.U.v.v.v.z.z.c.v.c.r...G w x B                       ",
"                        Z T p.&.&.~ *.+.:.c.v./.v.E.f.0.*.&.T M c b                       ",
"                        Z q.1.*.9.p.e.2.>.a.g.v.z.7.%.%.+.T J F c b                       ",
"                        ~ J K.0.p.e.;.F Y 2.r.r.r.e.w.w.e.p.p.T c                         ",
"                      Y.c.T.c.0.K ^ c G | *.J 7.>.U n B B P 0.Y B                         ",
"                  [.6.v./.R.U.z.e.=.] ] ..:...o.I *.b R ^ %.0.^ S Z.                      ",
"                  '.'./.c.U.W.Y.v.g.r.r.2.:.v.g.J 2.=.=.>.>.p.t 5.[.                      ",
"                  '.'.b.} W._.Y./.v.z.g.r.g.v.v.e.a.g.g.c.c.T.S.A.'.                      ",
"                  '.'.].b.W.`././.V.v.g.e.g.g.v.r.k.v.v.b.(.^.'.'.'.                      ",
"                      Z.].W.`.`./.).j.r.r.c.v.v.r.u.c./.Y.R.!.S.Z.                        ",
"                      B.S.Q.`././.C.g.b.v.(././.b.g.v./././.W.Z.                          ",
"                        Z.~.Y._.v.V.g.v.} a.z.g.c.z.v./.Y.W.S.z.                          ",
"                        l.S.Y.b.C.C.v.g.3.r.v.r.r.z.V.v.b.Y.z.Q                           ",
"                        J.n.W.b.b.b.c.g.r.g.g.g.e.g.v.v.z.~.L.G.G.                        ",
"                      G.G.J.!.Y.Y.c.z.z.v.v.r.v.c.z.c.Y.U.L.G.G.G.G.                      ",
"                    G.G.G.G.J.U.b.g.[ } ,.3.r.3.} ..c.v.L.G.G.G.G.G.G.                    ",
"                    D.D.D.j F.J.c.z.y.a.j.4.4.N.a.g.a.f.H.G.G.G.G.G.G.G.                  ",
"                    W W E i F.G.e.a.y.e.r.r.r.r.t.a.e.G.G.G.G.k g G.G.G.G.                ",
"                    '.'.[.p F.G.z.w.y.r.g.z.c.g.y.y.G.G.G.G.G.j u f h h h                 ",
"                  '.'.'.  i F.G.G.G.e.y.t.a.a.y.y.y.G.G.G.G.G.j a M.M.m.m.                ",
"                  '.'.'.  i F.G.G.G.G.G.8.;.;.;.y.i.G.G.G.G.G.j   }.[.[.[.                ",
"                  '.'.    i F.G.G.G.G.G.G.G.G.G.G.G.G.G.G.G.G.g   [.'.'.'.                ",
"                  '.'.      k G.G.G.G.G.G.G.G.G.G.G.F.j j j j &   S.S.S.S.                ",
"                  '.'.        d d d s s s s s s s s u # # % # .     z.z.z.                ",
"                  B.B.        + $ + o o o o o o o o o X o + + o                           ",
"                              + @ @ @ @ @ o . . X + @ + @ @ + o                           ",
"                              X + @ @ @ $ + . . O * = = = = - X                           ",
"                                o + o o o X .     ( z.z.z.O.H                             ",
"                                  O L w.w.w.O.    1 e e e 7                               ",
"                                  r A.{.{.S._     ; ; ; ; ;                               ",
"                                  < ( ' ' ) <   ; 1 1 3 1 ;                               ",
"                                  > : 2 8 8 >   : 6 @.@.5 :                               ",
"                                    : 9 K.P.D ; > 6 ` @.5 >                               ",
"                                    , / ` 9 5 :   2 D D 2                                 ",
"                                    , 4 2 : : :                                           ",
"                                      ; : : :                                             "
};
