/* XPM */
static char *c[] = {
/* columns rows colors chars-per-pixel */
"45 45 146 2 ",
"   c None",
".  c #DDB100",
"X  c #DFB50D",
"o  c #E2B400",
"O  c #E2B500",
"+  c #E5B600",
"@  c #E5B700",
"#  c #EBBB00",
"$  c #EBBC00",
"%  c #E4B80A",
"&  c #E6BA0D",
"*  c #ECBF0D",
"=  c #F2C100",
"-  c #F2C307",
";  c #FBC900",
":  c #FBC901",
">  c #FFCB00",
",  c #FFCC00",
"<  c #FFCD03",
"1  c #FCCB06",
"2  c #FFCD04",
"3  c #FFCD05",
"4  c #F2C40C",
"5  c #FFCE08",
"6  c #FFCE0A",
"7  c #FFCE0C",
"8  c #FFCF0F",
"9  c #FFCF10",
"0  c #FFCF11",
"q  c #F3C81D",
"w  c #F8CC1C",
"e  c #F8CC1D",
"r  c #FFD012",
"t  c #FFD016",
"y  c #FFD017",
"u  c #FED018",
"i  c #FFD118",
"p  c #FFD119",
"a  c #FFD21C",
"s  c #FFD21D",
"d  c #FFD21E",
"f  c #FFD21F",
"g  c #FFD220",
"h  c #FFD323",
"j  c #FFD324",
"k  c #FFD325",
"l  c #FFD427",
"z  c #FFD52D",
"x  c #FFD52E",
"c  c #FFD52F",
"v  c #E9C430",
"b  c #EBC83F",
"n  c #F4CD34",
"m  c #F0CC3F",
"M  c #FFD634",
"N  c #F4D03C",
"B  c #F5D03E",
"V  c #FFD738",
"C  c #FFD73A",
"Z  c #F9D43D",
"A  c #F9D43F",
"S  c #FFD83A",
"D  c #FFD83C",
"F  c #FFD83E",
"G  c #E5C440",
"H  c #FFD943",
"J  c #FFDA47",
"K  c #FFDB4B",
"L  c #FFDC51",
"P  c #FFDD53",
"I  c #FFDE59",
"U  c #FFDF5F",
"Y  c #FFE065",
"T  c #FFE066",
"R  c #FFE067",
"E  c #FFE167",
"W  c #FFE169",
"Q  c #FFE16A",
"!  c #FFE374",
"~  c #FFE376",
"^  c #FFE476",
"/  c #FFE57C",
"(  c #F5DF86",
")  c #FBE281",
"_  c #FFE581",
"`  c #FFE787",
"'  c #FBE489",
"]  c #FFE789",
"[  c #FFE88E",
"{  c #FFE991",
"}  c #FFE992",
"|  c #FFE993",
" . c #FFEA97",
".. c #FFEA98",
"X. c #FFEA9A",
"o. c #FFEB9A",
"O. c #FFEC9F",
"+. c #F6E6A7",
"@. c #FFECA1",
"#. c #F8E8A7",
"$. c #FAEAA7",
"%. c #FFEDA7",
"&. c #F3E5AA",
"*. c #FFEDAA",
"=. c #FFEEAA",
"-. c #FFEEAB",
";. c #FFEFB1",
":. c #FDEFB6",
">. c #FFF0B6",
",. c #FFF1BA",
"<. c #FFF1BB",
"1. c #FFF2BF",
"2. c #FFF2C1",
"3. c #FFF3C2",
"4. c #FFF4C6",
"5. c #FDF3CA",
"6. c #FDF4CD",
"7. c #FFF5CC",
"8. c #FFF5CF",
"9. c #FFF5D0",
"0. c #FFF7D7",
"q. c #FFF8DD",
"w. c #FFF9E1",
"e. c #FEF8E2",
"r. c #FFF9E2",
"t. c #FFFAE6",
"y. c #FFFAE8",
"u. c #FFFBE9",
"i. c #FFFBED",
"p. c #FEFBF1",
"a. c #FFFCF0",
"s. c #FEFCF1",
"d. c #FFFCF1",
"f. c #FFFCF2",
"g. c #FFFCF3",
"h. c #FDFBF5",
"j. c #FFFDF7",
"k. c #FFFEF8",
"l. c #FFFEF9",
"z. c #FFFEFA",
"x. c #FFFEFB",
"c. c #FFFFFB",
"v. c #FFFEFC",
"b. c #FFFFFD",
"n. c #FFFFFE",
"m. c #FFFFFF",
/* pixels */
"                                                                                          ",
"                                                                                          ",
"                                                                                          ",
"                                                                                          ",
"                                                                                          ",
"                                                                                          ",
"                                                                                          ",
"                                                                                          ",
"                                                                                          ",
"                                                                                          ",
"                                                                                          ",
"                                                                                          ",
"                                                                                          ",
"                        m.m.m.m.m.m.m.                                                    ",
"                      m.m.t.9.8.9.t.m.m.                                                  ",
"                    m.m.o.H g d g D ] j.m.m.                                              ",
"                  m.m.%.0 , , , , , 6 [ m.m.                                              ",
"                m.m.=.d , , , , , , , 0 } m.m.                                            ",
"                m.t.A , , , , , , , , , d 8.m.m.m.m.m.m.m.m.m.m.m.m.m.                    ",
"              m.m.o., , , , g L z , , , , ~ m.m.m.m.m.m.m.m.m.m.m.m.m.m.m.                ",
"              m.m.I , , , 6 :.m.2.d , , , d Y Y Y Y Y Y Y Y Y Y Y W _ 9.m.                ",
"              m.m.M , , , L j.m.m.W , , , , , , , , , , , , , , , , , Y m.m.              ",
"              m.m.z , , , / m.m.m.} , , , , , , , , , , , , , , , , , z m.m.              ",
"              m.m.z , , , ~ m.m.m._ , , , , , , , , , , , , , , , , , D m.m.              ",
"              m.m.H , , , D i.m.i.K , , , , t d d t , , , , , , , , e } m.m.              ",
"              m.m.~ , , , 6 o.j.=.0 , , , D 1.2.2.:.v + + + + + + % ( m.m.                ",
"                m.>.6 , , , 0 A t , , , , } m.m.m.j.G . . . . . . X &.m.m.                ",
"                m.i.H , , , , , , , , , z q.m.m.m.j.b + + + + + + & +.m.                  ",
"                m.m.1.g , , , , , , , d %.m.m.  m.j.m # # # # # # * %.m.                  ",
"                  m.m.=.g , , , , , t o.m.m.    m.j.B - - n m q - 4 %.m.                  ",
"                    m.m.2.Y g d g I 1.m.m.      m.m._ e A 8.t.] e A 8.m.                  ",
"                      m.m.m.j.j.j.j.m.m.        m.m.m.j.j.m.m.m.j.j.m.m.                  ",
"                          m.m.m.m.m.m.            m.m.m.m.m.m.m.m.m.m.                    ",
"                                                                                          ",
"                                                                                          ",
"                                                                                          ",
"                                                                                          ",
"                                                                                          ",
"                                                                                          ",
"                                                                                          ",
"                                                                                          ",
"                                                                                          ",
"                                                                                          ",
"                                                                                          ",
"                                                                                          "
};
