/* XPM */
static char *e1[] = {
/* columns rows colors chars-per-pixel */
"45 45 90 1 ",
"  c #242837",
". c #252937",
"X c #282B36",
"o c #2B2D36",
"O c #2D2F34",
"+ c #2C2E35",
"@ c #2D2E35",
"# c #2D2F35",
"$ c #222738",
"% c #232738",
"& c #2F3034",
"* c #313133",
"= c #313233",
"- c #333333",
"; c #343333",
": c #343432",
"> c #353432",
", c #353532",
"< c #343433",
"1 c #363532",
"2 c #363632",
"3 c #303134",
"4 c #383731",
"5 c #3A3831",
"6 c #7A681D",
"7 c #7C6A1D",
"8 c #7E6B1C",
"9 c #45412D",
"0 c #46412D",
"q c #594F28",
"w c #595027",
"e c #5C5127",
"r c #5F5425",
"t c #8A7419",
"y c #8D7618",
"u c #9E8313",
"i c #9C8114",
"p c #AC8D0F",
"a c #B2920D",
"s c #B3930D",
"d c #B0900E",
"f c #A18512",
"g c #A58811",
"h c #AA8C10",
"j c #AB8C10",
"k c #AB8D10",
"l c #CAA307",
"z c #CCA506",
"x c #CFA805",
"c c #D0A805",
"v c #D8AE02",
"b c #D9AF02",
"n c #DAAF02",
"m c #DAB000",
"M c #DBB001",
"N c #DCB101",
"B c #DDB200",
"V c #DDB201",
"C c #DEB200",
"Z c #DEB300",
"A c #DFB300",
"S c #DEB201",
"D c #DEB301",
"F c #DFB400",
"G c #E0B400",
"H c #E1B400",
"J c #E1B500",
"K c #E2B500",
"L c #E2B600",
"P c #E3B600",
"I c #E4B700",
"U c #E5B800",
"Y c #E6B800",
"T c #E9BB00",
"R c #EABB00",
"E c #EABC00",
"W c #EBBC00",
"Q c #ECBD00",
"! c #F3C200",
"~ c #F4C300",
"^ c #F5C400",
"/ c #FBC900",
"( c #FECC00",
") c #FFCC00",
"_ c #FFCD00",
"` c #FFCE00",
"' c #F8CA0A",
"] c #8BA5A3",
"[ c #89A4A6",
"{ c #88A4A7",
/* pixels */
"[[[[[[['_____________________________'[[[[[[[",
"[[[[[[['_____________________________'[[[[[[[",
"[[[[[[['_____________________________'[[[[[[[",
"[[[[[[['_____________________________'[[[[[[[",
"[[[[[[['_____________________________'[[[[[[[",
"[[[[[[['_____^^^^^^^^^^^^^^^^^^^_____'[[[[[[[",
"[[[[[[['____^BBBBBBBBBBBBBBBBBBn^____'[[[[[[[",
"[[[[[[['____^BGGGGGGGGGGGGGGGGGB^____'[[[[[[[",
"[[[[[[['____^BGGGGGBGGGGGBBGGGGB^____'[[[[[[[",
"[[[[[[['____^BGGGBGTnxcznTGBGGGB^____'[[[[[[[",
"[[[[[[['____^BGGBGBiw000wiBGGGGB^____'[[[[[[[",
"[[[[[[['____^BGGBY7++<<<++7YBGGB^____'[[[[[[[",
"[[[[[[['____^BGBTg+<<<<<<<+gTBGB^____'[[[[[[[",
"[[[[[[['____^BGGBw+<<<<<<<+wBGGB^____'[[[[[[[",
"[[[[[[['____^BGYz<<<<<<<<<<<zYGB^____'[[[[[[[",
"[[[[[[['____^BBYz+<<<<<<<<<+zYGB^____'[[[[[[[",
"[[[[[[['____^BGYz<<<<<<<<<<<zYBB^____'[[[[[[[",
"[[[[[[['____^BGGBw+<<<<<<<+qnGGB^____'[[[[[[[",
"[[[[[[['____^BGBTf+<<<<<<<+iTBGB^____'[[[[[[[",
"[[[[[[['____^BGGGG7&<<<<<+7GGBGB^____'[[[[[[[",
"[[[[[[['____^BGGGBTy+<<<+yTGGGGB^____'[[[[[[[",
"[[[[[[['____^BGGGBTa <<< aTBGGGB^____'[[[[[[[",
"[[[[[[['____^BGGGBTj <<< jTBGGGB^____'[[[[[[[",
"[[[[[[['____^BGGGBTp <<< pTBGGGB^____'[[[[[[[",
"[[[[[[['____^BGGGBTj%<<<%jTBGGGB^____'[[[[[[[",
"[[[[[[['____^BGGGBTa<545+aTBGGGB^____'[[[[[[[",
"[[[[[[['____^BGGGGGBnnnnnBGGGGGB^____'[[[[[[[",
"[[[[[[['____^BGGGGGGGGGGGGGGGGGB^____'[[[[[[[",
"[[[[[[['____^BGGGGGGGGGGGGGGGGGB^____'[[[[[[[",
"[[[[[[['____^BGGGGGGGGGGGGGGGGGB^____'[[[[[[[",
"[[[[[[['____^BGGGGGGGGGGGGGGGGGB^____'[[[[[[[",
"[[[[[[['____^BGGGGGGGGGGGGGGGGGB^____'[[[[[[[",
"[[[[[[['____^BGGGGGGGGGGGGGGGGGB^____'[[[[[[[",
"[[[[[[['____^BGGGGGGGGGGGGGGGGGB^____'[[[[[[[",
"[[[[[[['____^BGGGGGGGGGGGGGGGGGB^____'[[[[[[[",
"[[[[[[['____^BGGGGGGGGGGGGGGGGGB^____'[[[[[[[",
"[[[[[[['____^BGGGGGGGGGGGGGGGGGB^____'[[[[[[[",
"[[[[[[['____^BGGGGGGGGGGGGGGGGGB^____'[[[[[[[",
"[[[[[[['____^BBBBBBBBBBBBBBBBBBB^____'[[[[[[[",
"[[[[[[['_____^^^^^^^^^^^^^^^^^^^_____'[[[[[[[",
"[[[[[[['_____________________________'[[[[[[[",
"[[[[[[['_____________________________'[[[[[[[",
"[[[[[[['_____________________________'[[[[[[[",
"[[[[[[['_____________________________'[[[[[[[",
"[[[[[[['_____________________________'[[[[[[["
};
