/* XPM */
static char *e2[] = {
/* columns rows colors chars-per-pixel */
"45 45 166 2 ",
"   c None",
".  c #BFAE3E",
"X  c #DFB300",
"o  c #DFB70E",
"O  c #D6B211",
"+  c #D7B211",
"@  c #D6B212",
"#  c #D5B215",
"$  c #D8B311",
"%  c #D1B11C",
"&  c #E0B400",
"*  c #E1B400",
"=  c #E1B500",
"-  c #E0B501",
";  c #E2B600",
":  c #E3B600",
">  c #E0B402",
",  c #E3B702",
"<  c #E2B603",
"1  c #E4B700",
"2  c #E5B800",
"3  c #E6B900",
"4  c #E5B903",
"5  c #E6BA02",
"6  c #E6BA03",
"7  c #E9BA00",
"8  c #E8BB00",
"9  c #E9BB00",
"0  c #E9BB01",
"q  c #EABC00",
"w  c #EBBD00",
"e  c #ECBD00",
"r  c #EDBE00",
"t  c #EEBE00",
"y  c #EEBF00",
"u  c #E1B80B",
"i  c #E7BD0A",
"p  c #EBBF08",
"a  c #CCB025",
"s  c #C9B02A",
"d  c #C9B02B",
"f  c #D5B92C",
"g  c #C3AF36",
"h  c #C3AF37",
"j  c #C0AE3D",
"k  c #C8B133",
"l  c #C9B232",
"z  c #D2B830",
"x  c #F0C000",
"c  c #F1C100",
"v  c #F2C200",
"b  c #F3C300",
"n  c #F4C300",
"m  c #F4C400",
"M  c #F5C400",
"N  c #F6C500",
"B  c #F7C500",
"V  c #F7C600",
"C  c #F8C600",
"Z  c #F8C700",
"A  c #F9C700",
"S  c #FAC800",
"D  c #FAC900",
"F  c #FBC900",
"G  c #FCCA00",
"H  c #FDCA00",
"J  c #FDCB00",
"K  c #FECB00",
"L  c #FECC00",
"P  c #FFCC00",
"I  c #FFCD00",
"U  c #E6C017",
"Y  c #E7C117",
"T  c #EFC511",
"R  c #F2C712",
"E  c #F2C812",
"W  c #BDAD42",
"Q  c #BDAE42",
"!  c #BBAD45",
"~  c #BCAE46",
"^  c #B9AD48",
"/  c #BCB04D",
"(  c #AEAB5F",
")  c #B6AC50",
"_  c #B3AC55",
"`  c #B4AC54",
"'  c #B0AB5A",
"]  c #BAB051",
"[  c #9DA87F",
"{  c #A6A96F",
"}  c #A4A972",
"|  c #A3A974",
" . c #A1A877",
".. c #A2A877",
"X. c #A0A879",
"o. c #9CA782",
"O. c #97A78A",
"+. c #8FA599",
"@. c #8FA59A",
"#. c #8EA59B",
"$. c #8FA59B",
"%. c #8EA59C",
"&. c #8EA59D",
"*. c #8DA59E",
"=. c #8DA59F",
"-. c #93A693",
";. c #92A694",
":. c #92A695",
">. c #90A598",
",. c #91A69A",
"<. c #91A79A",
"1. c #90A69B",
"2. c #92A79A",
"3. c #8BA4A1",
"4. c #8BA4A2",
"5. c #8AA4A3",
"6. c #8CA5A1",
"7. c #8AA4A4",
"8. c #89A4A6",
"9. c #88A4A7",
"0. c #89A4A7",
"q. c #89A5A7",
"w. c #8AA5A7",
"e. c #88A4A8",
"r. c #8AA6A8",
"t. c #8BA6A8",
"y. c #8BA7A9",
"u. c #8CA7A9",
"i. c #8DA8AB",
"p. c #8DA9AB",
"a. c #8EAAAC",
"s. c #8EABAD",
"d. c #8FACAE",
"f. c #90ADAF",
"g. c #91ADAF",
"h. c #91AEB0",
"j. c #92AFB1",
"k. c #92AFB2",
"l. c #94B2B3",
"z. c #94B2B4",
"x. c #95B2B4",
"c. c #95B3B5",
"v. c #96B3B5",
"b. c #96B4B6",
"n. c #97B5B7",
"m. c #98B6B8",
"M. c #98B7B9",
"N. c #99B7B9",
"B. c #99B8BA",
"V. c #9AB8BA",
"C. c #9AB9BB",
"Z. c #9BB9BB",
"A. c #9CBBBD",
"S. c #9CBCBE",
"D. c #9DBCBE",
"F. c #9EBDBF",
"G. c #9EBEC0",
"H. c #9FBEC0",
"J. c #9FBFC0",
"K. c #9FBFC1",
"L. c #A0BFC1",
"P. c #A0C0C1",
"I. c #A0C0C2",
"U. c #A0C1C2",
"Y. c #A1C1C2",
"T. c #A1C1C3",
/* pixels */
"                              U.U.U.U.U.U.U.U.U.U.U.U.U.U.                                ",
"                          U.L.S.S.S.m.m.n.n.n.n.n.n.m.m.S.H.U.U.                          ",
"                      U.S.m.g.s.t.t.t.t.8.8.8.8.8.8.t.t.t.s.h.S.S.U.U.                    ",
"                  U.S.n.s.t.8.8.8.8.8.8.8.8.8.8.8.8.8.8.8.8.8.8.s.n.S.U.                  ",
"              U.H.n.s.8.8.8.8.8.8.8.8.8.8.8.8.8.8.8.8.8.8.8.8.8.8.8.s.n.H.U.              ",
"            U.S.h.8.8.8.8.8.8.8.8.8.8.8.8.8.8.8.8.8.8.8.8.8.8.8.8.8.8.t.n.S.U.            ",
"          U.S.s.8.8.8.8.8.8.8.t.8.8.#.#.#.#.#.#.#.#.8.8.t.t.8.8.8.8.8.8.8.g.S.U.          ",
"        U.S.s.8.8.8.8.8.8.t.#.[ ( j s s % + + + + a ~ _ { O.8.8.8.8.8.8.8.8.s.S.U.        ",
"        S.s.8.8.8.8.8.8.8.} h + , 5 0 0 0 0 0 0 0 0 5 , , % ^ o.8.8.8.8.8.8.8.s.S.        ",
"      S.s.8.8.8.8.8.8.>._ $ 0 M C P P P P P P P P P P P M 0 5 + ' #.8.8.8.8.8.8.s.S.      ",
"    S.h.8.8.8.8.8.8.-.. , M P P P P P P P P P P P P P P P P P M , ~ -.8.8.8.8.8.8.h.S.    ",
"    n.8.8.8.8.8.8.-.h 5 C P P P P P P P P P P P P P P P P P P P M 5 ~ #.8.8.8.8.8.8.n.    ",
"  S.s.8.8.8.8.8.8.~ 0 P P P P P P P P P P P P P P P P P P P P P P P 5 _ 8.8.8.8.8.8.s.S.  ",
"  n.8.8.8.8.8.8.} u P P P P P P P P P P P P P P P P P P P P P P P P C o } 8.8.8.8.8.8.n.  ",
"  s.8.8.8.8.8.>.l C P P P P P P P M x 0 0 0 0 0 0 0 M C P P P P P P P M l #.8.8.8.8.8.s.  ",
"n.t.8.8.8.8.t.X.p P P P P P P M 0 , , , , , , , , , , , 0 M P P P P P P u } t.8.8.8.8.t.n.",
"h.8.8.8.8.8.8.] P P P P P P M , , , , , , , , X X X , , , , M P P P P P C / 8.8.8.8.8.8.h.",
"s.8.8.8.8.8.#.f P P P P P M , X , , , , , , , X X X , , , X , C P P P P P z #.8.8.8.8.8.s.",
"s.8.8.8.8.8.>.Y P P P P P 0 X , X X , , , , , , X X X , , X X 0 P P P P P U >.8.8.8.8.8.s.",
"8.8.8.8.8.8.>.T P P P P C , X , X X X X , , , X X X X X , X X , C P P P P T >.8.8.8.8.8.8.",
"8.8.8.8.8.8.>.E P P P P M , , , X X , , , , X X , , X X , , , , M P P P P R >.8.8.8.8.8.8.",
"8.8.8.8.8.8.>.E P P P P M X , , X X , , , , X X , , , X , , , , M P P P P E >.8.8.8.8.8.8.",
"8.8.8.8.8.8.>.E P P P P M X X X X , , , X X X X , , X X X X , , M P P P P E >.8.8.8.8.8.8.",
"8.8.8.8.8.8.>.E P P P P M X X X X X , , X X X X , , X X X X X X M P P P P E >.8.8.8.8.8.8.",
"8.8.8.8.8.8.>.E P P P P M , X X , , , , X X X X , , X X X , , , M P P P P E >.8.8.8.8.8.8.",
"8.8.8.8.8.8.>.E P P P P M , , , , , , , X X X X , , X X X , , , M P P P P E >.8.8.8.8.8.8.",
"8.8.8.8.8.8.>.E P P P P M , , , , X , , X X , X , X X X , , , , M P P P P E >.8.8.8.8.8.8.",
"8.8.8.8.8.8.>.E P P P P M , , , X X , , X X , , X X X X X , , X M P P P P E >.8.8.8.8.8.8.",
"8.8.8.8.8.8.>.E P P P P M X , , X X X X , , , , X X , , X X X X M P P P P E >.8.8.8.8.8.8.",
"8.8.8.8.8.8.>.E P P P P M X X , X X X X , , , , X , , , X X X X M P P P P E >.8.8.8.8.8.8.",
"8.8.8.8.8.8.>.E P P P P M X , , , , X X , , X X X X , , , , X X M P P P P E >.8.8.8.8.8.8.",
"8.8.8.8.8.8.>.E P P P P M X , , , , , , X X X X X X , , , , X X M P P P P E >.8.8.8.8.8.8.",
"8.8.8.8.8.8.>.E P P P P M , , , , , , X X X , , , , , , , , , X M P P P P E >.8.8.8.8.8.8.",
"8.8.8.8.8.8.>.E P P P P M , , , , , , , X X , , , , , , , , , X M P P P P E >.8.8.8.8.8.8.",
"8.8.8.8.8.8.>.E P P P P M X , , , , , , X X X X X X , X , , X X M P P P P E >.8.8.8.8.8.8.",
"8.8.8.8.8.8.>.E P P P P M X , , , , X X X X X X X X X X X , X X M P P P P E >.8.8.8.8.8.8.",
"8.8.8.8.8.8.>.E P P P P M X X X X X X X , , , , X X , , , , X X M P P P P R >.8.8.8.8.8.8.",
"8.8.8.8.8.8.>.E P P P P M X X X X X X X , , , , X X , , , , X X M P P P P R >.8.8.8.8.8.8.",
"8.8.8.8.8.8.>.E P P P P M X X X X X X X X X , , X X X X X X X X M P P P P E >.8.8.8.8.8.8.",
"8.8.8.8.8.8.>.E P P P P P M M M M M M M M M M M M M M M M M M M P P P P P E >.8.8.8.8.8.8.",
"8.8.8.8.8.8.>.E P P P P P P P P P P P P P P P P P P P P P P P P P P P P P E >.8.8.8.8.8.8.",
"8.8.8.8.8.8.>.E P P P P P P P P P P P P P P P P P P P P P P P P P P P P P E >.8.8.8.8.8.8.",
"8.8.8.8.8.8.>.E P P P P P P P P P P P P P P P P P P P P P P P P P P P P P E >.8.8.8.8.8.8.",
"8.8.8.8.8.8.>.E P P P P P P P P P P P P P P P P P P P P P P P P P P P P P E >.8.8.8.8.8.8.",
"8.8.8.8.8.8.>.E P P P P P P P P P P P P P P P P P P P P P P P P P P P P P E >.8.8.8.8.8.8."
};
