/* XPM */
static char *floor[] = {
/* columns rows colors chars-per-pixel */
"45 45 115 2 ",
"   c #6D5C43",
".  c #685E53",
"X  c #756141",
"o  c #786447",
"O  c #7D6A45",
"+  c #73644C",
"@  c #79674A",
"#  c #7D6A4B",
"$  c #6D6153",
"%  c #6A625A",
"&  c #726553",
"*  c #796A55",
"=  c #70675B",
"-  c #736760",
";  c #736964",
":  c #776E6C",
">  c #796E6C",
",  c #7F7161",
"<  c #7C716F",
"1  c #7E7372",
"2  c #826D46",
"3  c #8A6C46",
"4  c #826E4C",
"5  c #8B6E49",
"6  c #847047",
"7  c #867249",
"8  c #8B764B",
"9  c #8F7A4F",
"0  c #957646",
"q  c #987745",
"w  c #967847",
"e  c #987846",
"r  c #937749",
"t  c #92794C",
"y  c #827254",
"u  c #867555",
"i  c #897550",
"p  c #8B7750",
"a  c #8E7652",
"s  c #897654",
"d  c #8F7950",
"f  c #8F7A50",
"g  c #8F7856",
"h  c #8E7950",
"j  c #86755B",
"k  c #8E7B59",
"l  c #8D7A5D",
"z  c #8E7A59",
"x  c #907950",
"c  c #907A50",
"v  c #927A50",
"b  c #917952",
"n  c #907B53",
"m  c #907A55",
"M  c #907B55",
"N  c #907B57",
"B  c #937C56",
"V  c #947D5B",
"C  c #927D5D",
"Z  c #867667",
"A  c #807261",
"S  c #8A7861",
"D  c #8A7A62",
"F  c #8D7A61",
"G  c #8C7A62",
"H  c #82746E",
"J  c #867869",
"K  c #927E61",
"L  c #947F62",
"P  c #927F64",
"I  c #967F63",
"U  c #937F68",
"Y  c #947F68",
"T  c #907E6A",
"R  c #867976",
"E  c #887A7B",
"W  c #897C7A",
"Q  c #8A7C7D",
"!  c #8A7C7E",
"~  c #8B7D7E",
"^  c #8B7F7E",
"/  c #8C7D7E",
"(  c #96816C",
")  c #95826F",
"_  c #97826E",
"`  c #958169",
"'  c #8E807F",
"]  c #958270",
"[  c #948272",
"{  c #948276",
"}  c #958376",
"|  c #968473",
" . c #92827C",
".. c #97847F",
"X. c #978579",
"o. c #8C7F80",
"O. c #8D8081",
"+. c #8F8182",
"@. c #918180",
"#. c #928284",
"$. c #928486",
"%. c #978784",
"&. c #998883",
"*. c #9A8986",
"=. c #968789",
"-. c #9A8988",
";. c #9A8A8C",
":. c #9B8B8C",
">. c #9A8A8D",
",. c #9A8B8D",
"<. c #9B8B8D",
"1. c #9B8B8E",
"2. c #9C8C8E",
"3. c #9C8C8F",
"4. c #99898B",
/* pixels */
"9 9 9 9 9 9 9 t t t t 9 9 9 9 9 9 9 9 9 9 9 9 8 8 8 N t t N 9 9 9 9 9 9 9 d 9 9 9 9 t t 9 ",
"9 8 8 9 9 9 t w w w w t t t 9 9 9 9 9 9 9 9 9 8 5 i N 9 N N 9 9 9 9 9 9 9 9 9 9 9 t w w t ",
"9 8 8 9 9 t t t r r 0 0 0 t t 9 9 9 9 9 9 9 9 S  .&.K 9 9 9 9 9 9 9 9 9 9 9 9 9 t t r 0 w ",
"9 N l K N t t t r r r 0 0 0 t d 9 9 t 9 9 9 u ^ :.:.{ d 9 9 9 9 9 9 9 9 9 9 9 9 t t t r t ",
"u  .:.:.Y t t t r r 0 0 0 t 9 9 8 9 d 9 9 8 + 1 ^ o.J 9 9 9 9 9 9 9 9 9 9 9 8 8 9 t r r t ",
"+ < +.^ S t t t r r r t t t 9 9 8 8 9 9 8 8 @ . % % u 9 9 9 9 9 9 9 9 9 8 7 8 9 8 8 8 t t ",
"@ . % = i t t t r r t t 9 9 8 9 9 9 9 8 8 9 9 7 4 7 8 9 9 9 9 9 9 9 9 9 8 9 9 9 8 8 t t t ",
"9 @ @ 7 t t t t r r t 9 9 8 8 9 9 9 9 8 9 t w e e t 8 8 9 9 9 9 9 9 9 9 9 9 9 9 9 8 t t t ",
"N t t t t t t t r t 9 9 8 7 9 9 9 9 8 8 t 0 0 0 0 0 w 8 9 9 9 9 9 9 9 9 9 9 9 9 8 9 t t t ",
"d 9 t t t t t t r t 9 9 8 7 9 9 9 9 9 t 0 0 0 0 0 0 0 t 8 9 9 9 9 t 9 9 9 9 9 9 8 9 t t t ",
"9 9 t t t t t t t 9 8 8 9 8 8 9 9 9 t w 0 0 0 0 0 0 0 w 9 8 9 9 9 9 9 9 9 9 9 9 9 9 9 t t ",
"9 9 t t t t t t 9 9 9 8 9 8 8 8 9 9 t 0 0 0 0 0 0 0 0 q t 9 N 9 9 9 9 9 9 9 9 9 9 9 9 t t ",
"9 d 9 9 9 t t 9 9 9 9 8 9 8 7 7 9 9 t 0 0 0 0 0 0 0 0 0 t 8 9 8 8 9 9 9 9 9 9 9 i S l 9 t ",
"d d 9 9 9 9 9 9 9 9 8 9 9 8 8 8 9 8 t 0 0 0 0 0 0 0 0 0 w 9 9 8 8 9 9 9 9 9 N 9 , @.@.{ N ",
"d d d 9 9 9 9 9 9 9 8 9 7 7 9 9 8 2 9 r 0 w 0 r r r 0 0 w t 9 9 9 9 9 9 9 d t 7 > @.:.:.{ ",
"9 7 9 9 9 9 9 9 9 9 7 O 8 9 9 9 8 8 8 7 8 r w 0 r r r 0 0 t 8 9 9 9 9 9 d 9 t @ - ^ :.:.{ ",
"9 8 8 8 8 9 9 9 9 9 8 7 9 9 9 9 8 9 9 9 9 9 t 0 r r r r t t 8 9 9 9 9 9 9 9 t 2 . > ^ +.S ",
"9 9 9 9 9 9 9 9 9 9 8 9 9 9 9 9 9 8 9 9 t t w r r r r r r t 9 9 9 9 9 9 9 9 9 8 @ $ $ * i ",
"9 9 d 9 9 9 9 9 9 9 8 9 9 9 t t t t t t t r r r r r r r r r 9 8 9 9 9 9 9 9 9 9 9 8 8 9 9 ",
"9 9 9 9 8 8 9 9 9 9 8 9 9 t t r r r t t r r r r r r r r r r t 8 8 9 9 9 9 9 9 9 9 9 9 9 9 ",
"9 9 9 9 5 3 8 9 9 9 9 9 9 t r r r r r r r r r r r r r r r r t 9 8 9 9 9 9 9 9 9 9 9 9 9 9 ",
"9 9 9 9 8 8 9 9 9 9 9 9 9 t N _ _ V t t t t t t t t t t t t t t 9 8 9 9 9 9 9 9 9 9 9 9 9 ",
"9 9 9 9 t 9 9 9 9 9 9 9 9 8 Z :.:.&.K t t t t t t t t t t t t t t 9 8 9 9 9 9 9 9 9 9 9 9 ",
"9 9 9 9 9 9 9 9 9 9 9 9 N 7 H :.:.:.@.N t t t t t t t t r t t t t 9 8 9 9 9 9 9 9 9 9 9 9 ",
"9 9 9 9 9 9 9 9 9 9 9 9 t 7 - ^ ^ 1 , 8 t t t t t t t r 8 t t t t 9 9 9 9 9 9 9 9 9 9 9 9 ",
"9 9 9 9 9 9 9 9 9 9 9 9 9 8 + $ & @ 8 t t t t t t t t t t t t t t 9 8 9 9 9 9 9 9 9 9 9 9 ",
"9 9 9 9 9 9 9 9 9 9 9 9 9 9 8 8 8 t t t t t t t t t t t t t t t t 9 7 9 9 9 9 9 9 9 9 9 9 ",
"9 9 9 9 9 9 9 9 9 9 9 9 9 9 9 9 t t t t r t t t t t N K N t t t t 9 8 9 9 9 9 9 9 9 9 9 9 ",
"9 9 9 9 9 9 9 9 9 9 9 9 9 d 9 9 t t t t 8 t t t t 8 * +._ t t t 9 7 8 9 9 9 9 9 8 8 8 8 9 ",
"9 9 9 9 9 9 9 8 8 9 9 9 9 d 9 9 t t t t t t t t t 9 @ & j t t 9 9 O 7 9 9 9 9 9 9 9 8 7 9 ",
"9 9 9 9 9 9 9 9 8 9 9 9 9 9 9 8 9 t t t t t t t t t 9 8 8 9 9 8 7 8 8 9 9 9 9 9 9 9 9 9 9 ",
"9 9 9 9 8 8 8 6 8 9 9 9 9 9 9 8 d t t t t t t t t t t t 9 8 8 8 9 9 8 9 9 9 9 9 9 9 9 9 9 ",
"9 9 9 9 9 9 9 2 8 8 9 9 9 9 8 8 9 9 t t 9 9 9 t t t t 9 9 7 7 8 9 8 9 9 d 9 9 9 9 9 9 9 9 ",
"9 9 9 9 9 9 9 9 9 9 9 9 9 9 8 9 9 9 9 9 9 8 9 9 9 9 9 9 9 8 8 8 9 8 9 9 9 9 9 9 9 9 9 9 9 ",
"9 9 9 t t t 9 d 9 9 9 9 9 9 8 8 9 9 9 9 7 9 9 9 9 9 9 9 9 9 8 8 9 8 9 9 t 9 9 9 9 9 9 9 9 ",
"9 9 t N K V t t t t t 9 9 8 8 8 9 9 7 2 8 t 9 9 9 9 9 9 9 9 9 8 9 9 9 8 8 9 9 9 9 9 9 9 9 ",
"9 9 8 Z @.&._ t t t t t t 9 9 9 8 8 9 t t t t 9 9 8 8 9 9 9 9 7 9 9 9 8 8 9 9 9 9 9 9 9 9 ",
"9 N 2 $ 1 =.:.V t t t t t t t t t t t 0 0 0 0 t 9 8 9 9 9 9 8 8 9 9 9 9 9 9 9 9 9 9 9 9 9 ",
"9 9 8   . > R l t t t t r r t t w 0 0 0 0 0 t 9 8 8 9 9 9 9 8 9 9 9 9 d 9 9 d 9 9 9 9 9 9 ",
"9 9 d 8 X   @ 9 t t t t t r r r r 0 0 0 0 w t 8 8 9 9 9 9 9 8 9 9 9 9 9 l {  .V 9 9 8 3 8 ",
"9 9 9 t t 8 t t t t t t r r r r r 0 0 0 r t 8 8 9 9 9 9 9 9 9 9 9 9 9 8 Z =.:.Y 9 9 8 5 8 ",
"d d 9 t t t t t t t t t r r r r r 0 0 0 t 8 8 9 9 9 9 9 9 9 9 9 9 9 9 8 & : < j 9 9 8 9 9 ",
"9 8 9 9 9 t t t t t t t t r r r r r r t 9 9 9 9 9 9 9 9 9 9 9 9 9 9 9 9 @ . & d 9 9 8 8 9 ",
"8 3 8 d 9 9 t t t t t t t t t t t t t 9 9 9 9 9 9 9 9 9 9 9 9 9 9 9 9 9 9 8 8 9 9 9 8 8 9 ",
"8 5 8 d 9 9 9 9 9 9 9 9 9 9 9 9 9 9 d 9 9 9 9 9 9 9 9 9 9 9 9 9 9 9 9 9 9 9 9 9 9 9 9 9 9 "
};
