/* XPM */
static char *h1[] = {
/* columns rows colors chars-per-pixel */
"45 45 125 2 ",
"   c None",
".  c #343D11",
"X  c #424C19",
"o  c #546023",
"O  c #606D29",
"+  c #67752D",
"@  c #69772E",
"#  c #6E7D31",
"$  c #6A665E",
"%  c #7E6356",
"&  c #756B59",
"*  c #5C5F65",
"=  c #5E6064",
"-  c #626262",
";  c #B2653F",
":  c #BB643C",
">  c #DE662D",
",  c #E0652C",
"<  c #EA6628",
"1  c #F46724",
"2  c #FA6721",
"3  c #8F634F",
"4  c #8E6F4E",
"5  c #9C6449",
"6  c #90694E",
"7  c #9C7D47",
"8  c #97764A",
"9  c #957A4A",
"0  c #9A7A48",
"q  c #836D53",
"w  c #8B6950",
"e  c #847252",
"r  c #8A7550",
"t  c #A26447",
"y  c #A47F44",
"u  c #AC7E40",
"i  c #748335",
"p  c #7B8C39",
"a  c #81923C",
"s  c #B2873D",
"d  c #B6893B",
"f  c #BC8C39",
"g  c #BCB33F",
"h  c #E99416",
"j  c #ED9816",
"k  c #F29D17",
"l  c #FA911E",
"z  c #F29E18",
"x  c #F6A219",
"c  c #FAA519",
"v  c #F6AB1F",
"b  c #FFAB1A",
"n  c #DC9B2A",
"m  c #C28F36",
"M  c #D08D30",
"N  c #C69134",
"B  c #EE8B23",
"V  c #E59F26",
"C  c #DBAF2E",
"Z  c #DAB02F",
"A  c #CFB135",
"S  c #C3B33C",
"D  c #CCB93D",
"F  c #D4B536",
"G  c #DDB431",
"H  c #D2B739",
"J  c #E7A025",
"K  c #ECA223",
"L  c #EEAE24",
"P  c #E4AE29",
"I  c #F1A520",
"U  c #F4AE22",
"Y  c #EEB026",
"T  c #E4B22D",
"R  c #E9B12A",
"E  c #E0B330",
"W  c #8B9E42",
"Q  c #AA8341",
"!  c #8FA244",
"~  c #91A445",
"^  c #96A947",
"/  c #9AAE4A",
"(  c #9CB04B",
")  c #A3B64D",
"_  c #ACB649",
"`  c #A3B84F",
"'  c #B1B646",
"]  c #BAB441",
"[  c #BFBC46",
"{  c #BABE4A",
"}  c #A7BC51",
"|  c #A6BC52",
" . c #A7BD52",
".. c #A4BA50",
"X. c #A8BE52",
"o. c #A9BE52",
"O. c #A9BF52",
"+. c #A9BF53",
"@. c #C0BB44",
"#. c #C3BC44",
"$. c #C0BC46",
"%. c #C8BA40",
"&. c #C9BA40",
"*. c #B2C04F",
"=. c #B4C04E",
"-. c #B5C04E",
";. c #AAC053",
":. c #ABC153",
">. c #AEC152",
",. c #AFC152",
"<. c #ADC253",
"1. c #ABC154",
"2. c #AAC254",
"3. c #ABC254",
"4. c #AAC255",
"5. c #ABC255",
"6. c #ABC355",
"7. c #ACC254",
"8. c #ACC354",
"9. c #ADC354",
"0. c #ACC355",
"q. c #ADC355",
"w. c #ADC455",
"e. c #AEC455",
"r. c #B2C050",
/* pixels */
"                                                                                          ",
"                                                                                          ",
"                                                                                          ",
"                                                                                          ",
"                                                                                          ",
"                                                                                          ",
"                                                                                          ",
"                                                                                          ",
"                                                                                          ",
"                                                                                          ",
"                                                                                          ",
"                                                                                          ",
"                                                                                          ",
"                                                                                          ",
"                                                                                          ",
"                                                                                          ",
"                                                                                          ",
"                              h h h h z c b b                                             ",
"                            h h h h z b b b b b b b b b b b                               ",
"                            h h h h c b P ] ] S F C P L v b b b b b b b b                 ",
"                            h h h h b b S ......` ` ) _ ' ] S A Z P L U b b               ",
"                            h h h j b b [ 2.2.2.2.2.X.X.......` ` ) _ ' A b b             ",
"                            h h h z b b { 2.) ( ) 2.2.2.2.2.2.2.2.X.X...' v b             ",
"                          h h h h z b U -...+ o i 2.2.2.2.2.2.....2.2.2.%.b b             ",
"                          h h h h x b R r.2./ ~ ( 2.2.2.2.2.2.a O a X.2.D b               ",
"                          h h h h c b G 2.X.@ X i 2.2.2.2.2.2.( W W ..2.F b               ",
"                          h h h h c b H 2...o . @ 2.2.2.2.2...@ o W 2.2.G b               ",
"                          h h h h b b &.2.2.^ p / 2.2.2.2.2.( X . i 2.2.R b               ",
"                          h h h j b b [ 2.2.2.2.2.2.X.~ ) 2.X.p # / 2.r.U b               ",
"                          h h h z b U { 2.2.2.2.2.2.~ X i 2.2.2.2.2.2.{ U b               ",
"                        h h h h z b L -.2.2.2.2.2.2.` p ~ 2.2.2.2.2.2.%.b b               ",
"                        h h h h x b U [ 2.2.2.2.2.2.2.2.2.2.2.2.2.2.2.&.b                 ",
"                        j h h h x b b U T G H %.[ { -.2.2.2.2.2.2.2.2.H b                 ",
"                    x z z j h h c b b b b b b b b U L R E F D %.{ { { R b                 ",
"                c c x z z h h h b b b b n 7 y V b b b b b b b b v U U b b                 ",
"        b b b b b c x z h h h j b b b b N - $ n b b b J d y d I b b b b b                 ",
"        b b b b b c x h h h h z b b m 0 e - $ Q f J b y 5 : t Q b b b b b                 ",
"      b b b b b b b   h h h h z b b 9 * - - - = $ n I 4 , 2 > q n b b b c                 ",
"        b b b b b     h h h h x b b d r & - - & e V b 0 : < : % 6 y x b c z               ",
"        b b b b       h h h h x b b b b Q = & n J b b n 8 w 3 > < 5 N b c c c b b         ",
"                      h h h h x b b b b s & 9 x b b b b b d 5 1 2 ; f b b b b b b b       ",
"                        h h h x b b b b x J J b b b b b b J u B l M V b b b b b b b       ",
"                            c b b b b b b b b b b b b b b b b b b b b b b b b b b b       ",
"                            b b b b b b b     b b b b b b b b b b b b b   b b b b b       ",
"                          b b b b b b b b               b b b b b b b b     b b b         "
};
