/* XPM */
static char *h2[] = {
/* columns rows colors chars-per-pixel */
"45 45 131 2 ",
"   c None",
".  c #343D11",
"X  c #3B4415",
"o  c #454F1B",
"O  c #45501B",
"+  c #4A551D",
"@  c #535F22",
"#  c #566224",
"$  c #596626",
"%  c #63712C",
"&  c #68762E",
"*  c #6E7E32",
"=  c #6A665E",
"-  c #7D6D55",
";  c #756B59",
":  c #5C5F65",
">  c #5E6064",
",  c #636262",
"<  c #BD643B",
"1  c #DB652E",
"2  c #CA6436",
"3  c #C36439",
"4  c #D66630",
"5  c #EC6627",
"6  c #E4662B",
"7  c #FC6721",
"8  c #8E6D4E",
"9  c #94664C",
"0  c #9B644A",
"q  c #906F4E",
"w  c #9E7C46",
"e  c #94724B",
"r  c #9B7748",
"t  c #97784A",
"y  c #997B49",
"u  c #806555",
"i  c #847252",
"p  c #897450",
"a  c #A96444",
"s  c #B26340",
"d  c #A17E45",
"f  c #758535",
"g  c #7D8D3A",
"h  c #7E913C",
"j  c #83943D",
"k  c #B1873D",
"l  c #B6893B",
"z  c #BE8C38",
"x  c #BEB33F",
"c  c #DC8C14",
"v  c #E18E15",
"b  c #E59115",
"n  c #E99416",
"m  c #EE9917",
"M  c #F29D17",
"N  c #F39E18",
"B  c #F5A017",
"V  c #F6A219",
"C  c #F9A519",
"Z  c #F6AC1F",
"A  c #FFAB1A",
"S  c #D2962E",
"D  c #DA992A",
"F  c #C08E37",
"G  c #C69134",
"H  c #CC9331",
"J  c #E49E26",
"K  c #DDAF2D",
"L  c #CBB237",
"P  c #C4B23B",
"I  c #CDB93D",
"U  c #D3B234",
"Y  c #DBB533",
"T  c #D3B739",
"R  c #EDA322",
"E  c #EDAE25",
"W  c #E4AF29",
"Q  c #F0A420",
"!  c #F4AE21",
"~  c #EDB027",
"^  c #E4B22C",
"/  c #E8B129",
"(  c #8C9E42",
")  c #A38044",
"_  c #AB8340",
"`  c #8EA144",
"'  c #91A445",
"]  c #96A947",
"[  c #9AAE4A",
"{  c #9DB14B",
"}  c #AFB547",
"|  c #A3B74E",
" . c #ABB649",
".. c #A3B84F",
"X. c #A8B84D",
"o. c #B1B546",
"O. c #B9B442",
"+. c #BEBD47",
"@. c #B6BF4D",
"#. c #BABE4A",
"$. c #A5BB51",
"%. c #AABE52",
"&. c #C3BB44",
"*. c #C1BC45",
"=. c #C2BE46",
"-. c #C7BB41",
";. c #C8BA40",
":. c #B3C04F",
">. c #B5C04E",
",. c #BDC04A",
"<. c #AAC053",
"1. c #ABC053",
"2. c #ABC153",
"3. c #AFC151",
"4. c #ADC253",
"5. c #A9C054",
"6. c #A9C154",
"7. c #AAC254",
"8. c #ABC254",
"9. c #AAC255",
"0. c #ABC255",
"q. c #ACC254",
"w. c #ACC354",
"e. c #ADC354",
"r. c #ACC355",
"t. c #ADC355",
"y. c #ADC455",
"u. c #AEC455",
"i. c #AFC556",
"p. c #B0C151",
"a. c #B1C151",
/* pixels */
"                                                                                          ",
"                                                                                          ",
"                                                                                          ",
"                                                                                          ",
"                                                                                          ",
"                                                                                          ",
"                                                                                          ",
"                                                                                          ",
"                                                                                          ",
"                                                                                          ",
"                                                        A A A                             ",
"                                A A A A A A A A A A A A A A A A                           ",
"                  n n n n C A A Z ! E E W W K U U L P P O.O.x E A                         ",
"                  n n n N A Z P o.}  . .............$.$.$.$.$.U A       A A A A           ",
"                n n n n V A W X.$.$.$.$.%.%.%.%.7.7.7.7.7.7.7.U A     A A A A A A         ",
"                n n n n V A / %.7.7.7.7.7.7.7.7.7.7.7.$.{ ..7.T A     A A A A A A         ",
"                n n n n V A E :.7.7...` ] 7.7.7.7.7.7.` $ % [ I A     A A A A A A         ",
"                n n n n N A ! :.7.$.f % g 7.7.7.7.7.7...` ` ..-.A     A A A A A A         ",
"                n n n n N A Z #.7.7.{ j j $.7.7.7.7.7.[ $ # ` -.A A     A A A A A         ",
"                  n n n N A A +.7.7.j @ # j 7.7.7.7.7.( * f h ,.A A     V C C C           ",
"                  n n n m A A -.7.7.' ( ` ' %.$...[ { ..$.%.$.#.! A     V V C C           ",
"                  n n n m A A ;.7.7.7.7.7.%.* + + O O g 7.7.7.@.! A     M V V C           ",
"                  n n n m A A I 7.7.7.7.7.7.g X . . + ] 7.7.7.a.E A   M M V V             ",
"                  n n n n C A T 7.7.7.7.7.7.%.j % & ' 7.7.7.7.a./ A M M M M               ",
"                  n n n n C A Y 7.7.7.7.7.7.7.7.7.7.7.7.7.7.7.@.~ A M M M                 ",
"                  n n n n C A ^ a.7.7.7.a.:.@.#.#.-.-.I T Y Y / A A M M                   ",
"                  n n n n C A A ^ Y ^ / ~ ~ ! ! A A V R A A A A A A                       ",
"                  n n n n V A A A A Q D J A A A A D e 8 w J A A A A                       ",
"                m n n n n V A A A A y = y A A A V r 3 6 s w J R A A                       ",
"            M M m n v b n N A A A A y > - F z Q R e 6 7 4 u 8 e S A                       ",
"          M M M M c c v n N A A S ) - , , , , G A d a 2 0 3 5 2 e V A                     ",
"          M M M   v v b n M A A k > > , , = ; G A R k t - 1 7 1 q Q A                     ",
"        V V M M     n n n m A A S i p = , w R V A A A A z 9 < 0 _ A A                     ",
"        C V V M     n n n m A A A V R - : ) A A A A A A A G d l V A A                     ",
"        C C V V     n n n n A A A A A k ) S A A A A A A A A A V C A A A A A               ",
"        C C C A     n n n n C A A A A A A A A A A A A A A A A V A A A V m m n             ",
"        A A A A A     n n n m C A A A A A A A A A A A A       A A A N n n n n             ",
"        A A A A A A     n n n M A A A                         A A M n n n n n             ",
"        A A A A A A       C M C A A A                         A M n n n n n               ",
"        A A A A A         A C A A A                           M n n n n                   ",
"          A A A         A A A A A A                             n n                       ",
"                        A A A A A                                                         ",
"                      A A A A A                                                           ",
"                      A A A A A                                                           ",
"                      A A A A                                                             "
};
