/* XPM */
static char *l1[] = {
/* columns rows colors chars-per-pixel */
"45 45 140 2 ",
"   c None",
".  c #0D0E13",
"X  c #0F1014",
"o  c #0E1519",
"O  c #111114",
"+  c #14191E",
"@  c #2E261E",
"#  c #1B1C25",
"$  c #1E1F29",
"%  c #2F2920",
"&  c #2B372F",
"*  c #39322F",
"=  c #4F1F1F",
"-  c #501F1F",
";  c #591F1F",
":  c #611F1F",
">  c #791E1E",
",  c #582625",
"<  c #582825",
"1  c #5D2C28",
"2  c #493E33",
"3  c #6B2020",
"4  c #742020",
"5  c #7D2020",
"6  c #762A27",
"7  c #643434",
"8  c #773131",
"9  c #3E403F",
"0  c #42423E",
"q  c #49483F",
"w  c #5E4C3A",
"e  c #724136",
"r  c #69553F",
"t  c #1F4B48",
"y  c #295049",
"u  c #235450",
"i  c #285650",
"p  c #26605C",
"a  c #286560",
"s  c #296B66",
"d  c #376D64",
"f  c #386D64",
"g  c #2B716B",
"h  c #357169",
"j  c #297771",
"k  c #2B7B75",
"l  c #2C7F79",
"z  c #347971",
"x  c #3A7B71",
"c  c #454644",
"v  c #454847",
"b  c #4B4842",
"n  c #474A49",
"m  c #494C4B",
"M  c #4E504F",
"N  c #5C5144",
"B  c #51514D",
"V  c #5F574C",
"C  c #474B52",
"Z  c #4D5151",
"A  c #545553",
"S  c #595B59",
"D  c #62564F",
"F  c #6D5B4E",
"G  c #765F4F",
"H  c #6E5F58",
"J  c #655B54",
"K  c #5C715F",
"L  c #6C6055",
"P  c #71655A",
"I  c #626261",
"U  c #646867",
"Y  c #6C6966",
"T  c #7B6C60",
"R  c #6A7560",
"E  c #843939",
"W  c #855B46",
"Q  c #8C644D",
"!  c #886C54",
"~  c #856B5B",
"^  c #916C55",
"/  c #8F735A",
"(  c #937357",
")  c #99765F",
"_  c #97785A",
"`  c #9A7C5F",
"'  c #B6775A",
"]  c #826E69",
"[  c #827164",
"{  c #8B7362",
"}  c #867E63",
"|  c #89746C",
" . c #9D7766",
".. c #957A67",
"X. c #9B7B64",
"o. c #927A6A",
"O. c #997F7F",
"+. c #AE7064",
"@. c #A07F64",
"#. c #AA7B68",
"$. c #B17467",
"%. c #2E827C",
"&. c #30867F",
"*. c #7D856C",
"=. c #8E896C",
"-. c #9C836E",
";. c #998271",
":. c #9D8875",
">. c #A38365",
",. c #A3846A",
"<. c #AA866B",
"1. c #AC896D",
"2. c #B98362",
"3. c #AF8B70",
"4. c #B58575",
"5. c #B28D73",
"6. c #AF9175",
"7. c #AC907B",
"8. c #B49175",
"9. c #BA9177",
"0. c #B4927B",
"q. c #BA947B",
"w. c #BEA27A",
"e. c #C0997E",
"r. c #D1A77B",
"t. c #D5AB7D",
"y. c #2E8A83",
"u. c #33958D",
"i. c #39968D",
"p. c #B29882",
"a. c #BD9A82",
"s. c #C09B83",
"d. c #C19A81",
"f. c #C29F85",
"g. c #C29D83",
"h. c #C6A086",
"j. c #C3AE85",
"k. c #D6AE80",
"l. c #DEB282",
"z. c #E2B584",
/* pixels */
"                                                                                          ",
"                                                                                          ",
"                                                                                          ",
"                                                                                          ",
"                                                                                          ",
"                            m m m m m m A S S                                             ",
"                        m m m m m m m m m m m A A                                         ",
"                        m m m m m m m m m m m m m Z U                                     ",
"                    m m m m m m m m m n m m m m m m Z S                                   ",
"                    m m m v c m b c c c 9 9 c v m m m m I                                 ",
"                    c c c v b b b b 0 c V 9 9 9 c m m m S                                 ",
"                    b c b b <.<.` G b 9 c m 9 9 9 c b m A                                 ",
"                    1.1.5.<.<.,.X.! N 0 c B A F 0 9 m m m S                               ",
"                    8.5.5.5.8.5.1.q.q.p.G / 3./ N 9 c b m M                               ",
"                    q.q.q.q.9.p.7.-.q.q.3.s.s.3.3.b 9 c m M                               ",
"                    9.q.q.9.{ [ T P L 3.s.q.s.s./ 3.9 c B A @                             ",
"                    <.1.1.,.>.@.,.,.-.{ s.s.3.s./ p.q c m A @                             ",
"                    F ,.,...H D J [ :.-.3.q.s.3.3.p.N c m A @                             ",
"                    ~ ) B { Y C Y o.;.q.3.s.q.3.s.q.@ c m @                               ",
"                    <.5.L X.{ ] | o.3.q.3.q.3.s.3.s.@ b A @                               ",
"                    q.q.1.1.5.<.9.7.p.3.a.s.3.q.3.s.,.b @                                 ",
"                    q.q.1.5.5.q.q.a.q.q.s.3.q.s.q.,.,.% y                                 ",
"                    q.q.5.3.q.a.s.q.q.3.s.s.q.s.3.q.r & &.s                               ",
"                    s.s.q.5.5.s.q.q.3.s.s.q.3.q.s.,.} g u.k                               ",
"                    s.h.a.s.4.s.s.s.q.s.q.s.3.s.,.q.z u.u.u.a                             ",
"                    5.,.^ 5.9.e.q.a.s.3.3.s.s.,.K x u.u.u.u.%.                            ",
"                    8.5.<.5.q.q.q.3.s.3.s.,.f h y.u.u.g j %.k u                           ",
"                    >.q.8.8.5.q.a.3.,.,.d l u.u.u.u.u.&.*.=.=.=.                          ",
"                    #.<. .X.6.q.p.,.y.y.u.u.u.u.u.u.u.i.j.z.z.z.                          ",
"                    +.$.4.<.3.9.1.u.u.u.u.u.u.u.u.u.u.i.j.z.l.l.                          ",
"                    4.4.3.3.1.,.%.u.u.u.u.u.u.u.u.u.u.z w.z.l.                            ",
"                    3.1.<.1.>.u y.u.u.u.u.u.u.u.u.%.g i w.z.l.                            ",
"                    5.5.1.,.    p a a a a a a a a u t R k.l.l.                            ",
"                    ,.,.>.      + + + + + + + + + + o N r.t.t.                            ",
"                    >.1.            . # $ $ $ # . . . O w                                 ",
"                    1.                + # $ $ # X . .                                     ",
"                                        * + + + X 2                                       ",
"                                        Q >.>._ ( W                                       ",
"                                        6 ' 2.e 1 ,                                       ",
"                                        : : ; - = -                                       ",
"                                        7 : 4 4 ; -                                       ",
"                                      O.E > 5 5 3 =                                       ",
"                                    < 8 > 4 4 : - -                                       ",
"                                    - - - - - - =                                         ",
"                                                                                          "
};
