/* XPM */
static char *l2[] = {
/* columns rows colors chars-per-pixel */
"45 45 160 2 ",
"   c None",
".  c #070A0F",
"X  c #070A10",
"o  c #0E0F13",
"O  c #13151C",
"+  c #181719",
"@  c #2E261E",
"#  c #161823",
"$  c #1E1F29",
"%  c #2C2723",
"&  c #2F2920",
"*  c #332B24",
"=  c #3E342A",
"-  c #4F1E1F",
";  c #501F1F",
":  c #5C1F1F",
">  c #621F1F",
",  c #691E1E",
"<  c #751E1F",
"1  c #7C1F1F",
"2  c #552422",
"3  c #592926",
"4  c #5B2A2A",
"5  c #4A3E33",
"6  c #6C2020",
"7  c #6F2E2E",
"8  c #642B29",
"9  c #7D2020",
"0  c #6E3C33",
"q  c #7E3E34",
"w  c #28403A",
"e  c #3E403F",
"r  c #42423E",
"t  c #49483F",
"y  c #554739",
"u  c #594738",
"i  c #76483A",
"p  c #69553F",
"a  c #1E4644",
"s  c #1D4F4C",
"d  c #204947",
"f  c #234B4A",
"g  c #23524E",
"h  c #235550",
"j  c #2C5751",
"k  c #255A55",
"l  c #2C635D",
"z  c #3F6056",
"x  c #34625A",
"c  c #2E6861",
"v  c #2A6E69",
"b  c #2B726D",
"n  c #30726B",
"m  c #2B7771",
"M  c #2E7F78",
"N  c #2C7C76",
"B  c #327971",
"V  c #454644",
"C  c #454847",
"Z  c #4B4842",
"A  c #474A49",
"S  c #494C4B",
"D  c #4E504F",
"F  c #4B5A4D",
"G  c #5B5046",
"H  c #51514D",
"J  c #5F574C",
"K  c #474B52",
"L  c #4D5151",
"P  c #545553",
"I  c #595B59",
"U  c #6B5845",
"Y  c #62564F",
"T  c #6D5B4E",
"R  c #765F4F",
"E  c #6E5F58",
"W  c #655B54",
"Q  c #496559",
"!  c #536A5B",
"~  c #6C6055",
"^  c #626F5D",
"/  c #71655A",
"(  c #76745D",
")  c #646867",
"_  c #696664",
"`  c #7B6C60",
"'  c #777D65",
"]  c #876C58",
"[  c #966C54",
"{  c #8F735A",
"}  c #907559",
"|  c #99765F",
" . c #987B5E",
".. c #A1765A",
"X. c #BC7E5F",
"o. c #826E69",
"O. c #827164",
"+. c #8B7362",
"@. c #887968",
"#. c #9D7766",
"$. c #957A67",
"%. c #9B7B64",
"&. c #927A6A",
"*. c #857373",
"=. c #AE7064",
"-. c #A07F64",
";. c #AA7B68",
":. c #B17467",
">. c #2F857E",
",. c #468276",
"<. c #8D8265",
"1. c #918467",
"2. c #9C836E",
"3. c #9D8875",
"4. c #998271",
"5. c #A38266",
"6. c #A88060",
"7. c #A3846A",
"8. c #AA866B",
"9. c #AC896D",
"0. c #AA8965",
"q. c #B4926C",
"w. c #AF8B70",
"e. c #B58575",
"r. c #B28D73",
"t. c #AF9175",
"y. c #AC907B",
"u. c #B49175",
"i. c #BA9177",
"p. c #B39C76",
"a. c #B4927B",
"s. c #BA947B",
"d. c #BEA077",
"f. c #C0997E",
"g. c #C29C73",
"h. c #CCAA7E",
"j. c #CDA57A",
"k. c #D1A77A",
"l. c #308B83",
"z. c #328F88",
"x. c #2F948C",
"c. c #33948D",
"v. c #38968D",
"b. c #41978C",
"n. c #41988C",
"m. c #589180",
"M. c #B29882",
"N. c #BD9A82",
"B. c #98A787",
"V. c #C09B83",
"C. c #C19A81",
"Z. c #C29E84",
"A. c #C6A086",
"S. c #CDAF83",
"D. c #DAAF80",
"F. c #CFB083",
"G. c #DEB282",
"H. c #E1B483",
"J. c #E1B483",
"K. c #E6BA87",
/* pixels */
"                                                                                          ",
"                                                                                          ",
"                                                                                          ",
"                                                                                          ",
"                                                                                          ",
"                            S S S S S S P I I                                             ",
"                        S S S S S S S S S S S P P                                         ",
"                        S S S S S S S S S S S S S L )                                     ",
"                    S S S S S S S S S A S S S S S S L I                                   ",
"                    S S S C V S Z V V V e e V C S S S S _                                 ",
"                    V V V C Z Z Z Z r V J e e e V S S S I                                 ",
"                    Z V Z Z 8.8. .R Z e V S e e e V Z S P                                 ",
"                    9.9.r.8.8.7.%.] G r V H P T r e S S S I                               ",
"                    u.r.r.r.u.r.9.s.s.M.R { w.{ G e V Z S D                               ",
"                    s.s.s.s.i.M.y.2.s.s.w.V.V.w.w.Z e V S D                               ",
"                    i.s.s.i.+.O.` / ~ w.V.s.V.V.{ w.e V H P @                             ",
"                    8.9.9.7.5.-.7.7.2.+.V.V.w.V.{ M.t V S P @                             ",
"                    T 7.7.$.E Y W O.3.2.w.s.V.w.w.M.G V S P @                             ",
"                    ] | H +._ K _ &.4.s.w.V.s.w.V.s.@ V S @                               ",
"                    8.r.~ %.+.o.@.&.w.s.w.s.w.V.w.V.@ Z P @                               ",
"                    s.s.9.9.r.8.i.y.M.w.V.V.w.s.w.V.7.Z @                                 ",
"                    s.s.9.r.r.s.s.N.s.s.V.w.s.V.s.7.7.&                                   ",
"                    s.s.r.w.s.N.V.s.s.w.V.V.s.V.w.s.p w h                                 ",
"                    V.V.s.r.r.V.s.s.w.V.V.s.w.s.V.7.@.M k g                               ",
"                    V.A.N.V.e.V.V.V.s.V.s.V.w.V.7.s.B c.v g                               ",
"                    r.7.[ r.i.f.s.N.V.w.w.V.V.7.<.x c.c.l.h g                             ",
"                    u.r.8.r.s.s.s.w.V.w.V.7.1.Q c M l.c.c.b g                             ",
"                    5.s.u.u.r.s.N.w.7.7.( l m N c.z.l n n l g                             ",
"                    ;.8.#.%.t.s.M.7.x x B l.c.c.c.x.m.d.d.d.!                             ",
"                    =.:.e.8.w.i.9.c.c.c.c.c.c.c.c.v.B.J.J.p.z                             ",
"                    e.e.w.w.9.7.>.c.c.c.c.c.c.c.c.b.F.G.G.' s                             ",
"                    w.9.8.9.5.h >.c.c.c.c.c.c.c.c.n.S.J.d.j g                             ",
"                    r.r.9.7.  h >.c.c.c.c.c.c.c.c.,.h.J.p.g g                             ",
"                    7.7.5.      d a a d f f f a ^ h.G.D.F a g                             ",
"                    5.9.        o o o # $ $ # o % 0.j.g.*                                 ",
"                    9.          o o o O # # # O . + % *                                   ",
"                                o o o o o u U U U U y                                     ",
"                                 .y X o o q.K.k.k.[ 0                                     ",
"                                ..} 5 =     X.q 8 2 - ;                                   ",
"                              - 2 i 6.      , > > 6 ; ; ;                                 ",
"                          ; ; ; ; - 3         4 < 9 9 > -                                 ",
"                            ; ; ; ; -       *.7 1 9 6 :                                   ",
"                                ; ; ;       8 < 6 : ; -                                   ",
"                                            ; ; ;                                         ",
"                                                                                          "
};
