/* XPM */
static char *l3[] = {
/* columns rows colors chars-per-pixel */
"45 45 149 2 ",
"   c None",
".  c #0D0E12",
"X  c #0F1014",
"o  c #111217",
"O  c #1E1C1C",
"+  c #14141A",
"@  c #211F1F",
"#  c #2E261E",
"$  c #191A22",
"%  c #1E1F29",
"&  c #1C3E3D",
"*  c #2F2920",
"=  c #342B24",
"-  c #4F1E1F",
";  c #501F1F",
":  c #5C1F1F",
">  c #6A1F1F",
",  c #741D1E",
"<  c #4F2020",
"1  c #443930",
"2  c #6C2020",
"3  c #6C2825",
"4  c #732120",
"5  c #7D2020",
"6  c #73372F",
"7  c #6D3D33",
"8  c #1E413F",
"9  c #3E403F",
"0  c #42423E",
"q  c #49483F",
"w  c #544638",
"e  c #57483A",
"r  c #6F4036",
"t  c #74483A",
"y  c #69553F",
"u  c #1F4745",
"i  c #224B4A",
"p  c #21524E",
"a  c #2D524B",
"s  c #3E5349",
"d  c #245450",
"f  c #2D5B55",
"g  c #275E59",
"h  c #245854",
"j  c #325C55",
"k  c #27635E",
"l  c #2E615A",
"z  c #34625A",
"x  c #256560",
"c  c #2D6A64",
"v  c #2A716B",
"b  c #30726B",
"n  c #2B7771",
"m  c #2C7A74",
"M  c #307971",
"N  c #454644",
"B  c #454847",
"V  c #4B4842",
"C  c #474A49",
"Z  c #494C4B",
"A  c #4E504F",
"S  c #5B5046",
"D  c #51514D",
"F  c #5F574C",
"G  c #474B52",
"H  c #4D5151",
"J  c #545553",
"K  c #595B59",
"L  c #62564F",
"P  c #6D5B4E",
"I  c #765F4F",
"U  c #6E5F58",
"Y  c #655B54",
"T  c #785B5B",
"R  c #496559",
"E  c #51695A",
"W  c #6C6055",
"Q  c #71655A",
"!  c #76745D",
"~  c #646867",
"^  c #696664",
"/  c #7B6C60",
"(  c #843939",
")  c #895644",
"_  c #84674F",
"`  c #876C58",
"'  c #916C55",
"]  c #897055",
"[  c #8E735A",
"{  c #99765F",
"}  c #9B7C5E",
"|  c #826E69",
" . c #827164",
".. c #8B7362",
"X. c #887968",
"o. c #9D7766",
"O. c #957A67",
"+. c #9B7B64",
"@. c #927A6A",
"#. c #977777",
"$. c #AE7064",
"%. c #A07F64",
"&. c #AA7B68",
"*. c #B17467",
"=. c #2E837C",
"-. c #8E8366",
";. c #918467",
":. c #9C836E",
">. c #9D8875",
",. c #998271",
"<. c #A38266",
"1. c #AF8362",
"2. c #A3846A",
"3. c #AA866B",
"4. c #AC896D",
"5. c #B58966",
"6. c #B5926D",
"7. c #AF8B70",
"8. c #B58575",
"9. c #B28D73",
"0. c #AF9175",
"q. c #AC907B",
"w. c #A59876",
"e. c #B49175",
"r. c #BA9177",
"t. c #B4927B",
"y. c #BA947B",
"u. c #BFA077",
"i. c #BEA178",
"p. c #B2A47E",
"a. c #C3956E",
"s. c #C0997E",
"d. c #C39D74",
"f. c #CDA57A",
"g. c #328D85",
"h. c #33958D",
"j. c #39978D",
"k. c #B29882",
"l. c #BD9A82",
"z. c #BC9B83",
"x. c #C09B83",
"c. c #C19A81",
"v. c #C29E84",
"b. c #C6A086",
"n. c #C4AF85",
"m. c #DEB282",
"M. c #DEB282",
"N. c #E1B484",
"B. c #E1B484",
/* pixels */
"                                                                                          ",
"                                                                                          ",
"                                                                                          ",
"                                                                                          ",
"                                                                                          ",
"                            Z Z Z Z Z Z J K K                                             ",
"                        Z Z Z Z Z Z Z Z Z Z Z J J                                         ",
"                        Z Z Z Z Z Z Z Z Z Z Z Z Z H ~                                     ",
"                    Z Z Z Z Z Z Z Z Z C Z Z Z Z Z Z H K                                   ",
"                    Z Z Z B N Z V N N N 9 9 N B Z Z Z Z ^                                 ",
"                    N N N B V V V V 0 N F 9 9 9 N Z Z Z K                                 ",
"                    V N V V 3.3.} I V 9 N Z 9 9 9 N V Z J                                 ",
"                    4.4.9.3.3.2.+.` S 0 N D J P 0 9 Z Z Z K                               ",
"                    e.9.9.9.e.9.4.y.y.k.I [ 7.[ S 9 N V Z A                               ",
"                    y.y.y.y.r.k.q.:.y.y.7.x.x.7.7.V 9 N Z A                               ",
"                    r.y.y.r... ./ Q W 7.x.y.x.x.[ 7.9 N D J #                             ",
"                    3.4.4.2.<.%.2.2.:...x.x.7.x.[ k.q N Z J #                             ",
"                    P 2.2.O.U L Y  .>.:.7.y.x.7.7.k.S N Z J #                             ",
"                    ` { D ..^ G ^ @.,.y.7.x.y.7.x.y.# N Z #                               ",
"                    3.9.W +...| X.@.7.y.7.y.7.x.7.x.# V J #                               ",
"                    y.y.4.4.9.3.r.q.k.7.l.x.7.y.7.x.2.V #                                 ",
"                    y.y.4.9.9.y.y.l.y.y.x.7.y.x.y.2.2.*                                   ",
"                    y.y.9.7.y.l.x.y.y.7.x.x.y.x.7.y.y a v                                 ",
"                    x.x.y.9.9.x.y.y.7.x.x.y.7.y.x.2.X.g g.v                               ",
"                    x.b.l.x.8.x.x.x.y.x.y.x.7.x.2.y.f =.h.=.g                             ",
"                    9.2.' 9.r.s.y.l.x.7.7.x.x.2.-.j =.h.h.h.c                             ",
"                    e.9.3.9.y.y.y.7.x.7.x.2.;.R c =.h.g.h.h.g.h                           ",
"                    <.y.e.e.9.y.l.7.2.2.! l n m h.h.h.v c b c f                           ",
"                    &.3.o.+.0.y.k.2.z z M g.h.h.h.h.h.g.w.u.i.i.                          ",
"                    $.*.8.3.7.r.4.h.h.h.h.h.h.h.h.h.h.j.n.N.N.N.                          ",
"                    8.8.7.7.4.2.=.h.h.h.h.h.h.h.h.h.h.h.p.m.m.m.                          ",
"                    7.4.3.4.<.d =.h.h.h.h.h.h.h.h.h.g.x E m.m.m.                          ",
"                    9.9.4.2.  d =.h.h.h.h.h.h.h.h.m k p j w.N.m.                          ",
"                    2.2.<.      i i i i i u u u u 8 & & s f.m.m.                          ",
"                    <.4.        o % % % o . . . . . . . O d.f.f.                          ",
"                    4.          o % % $ X . . . . . . .                                   ",
"                                o $ o X . . . . . + 1                                     ",
"                                [ @ . . . . O = ] _ t                                     ",
"                                5.} w e =     6.5.r -                                     ",
"                            #.2 3 ) a.N.        7 - ; ;                                   ",
"                          T ( 5 > , 6 1.        - ; ; ;                                   ",
"                            > 5 5 5 : <         ; ; ; ;                                   ",
"                              : 4 2 ;         ; ; ; ;                                     ",
"                                  ; ;                                                     ",
"                                                                                          "
};
