/* XPM */
static char *player[] = {
/* columns rows colors chars-per-pixel */
"48 42 233 2 ",
"   c None",
".  c #140C07",
"X  c #14110F",
"o  c #261C16",
"O  c #2E190A",
"+  c #35261C",
"@  c #3B2618",
"#  c #352114",
"$  c #2B2B2B",
"%  c #2D2724",
"&  c #382B22",
"*  c #3C322C",
"=  c #393736",
"-  c #4E1E0D",
";  c #5A1D0E",
":  c #5B1910",
">  c #631712",
",  c #6B1414",
"<  c #691A12",
"1  c #741216",
"2  c #741A13",
"3  c #791216",
"4  c #770F12",
"5  c #452C1B",
"6  c #4B2B1D",
"7  c #56351B",
"8  c #732C1B",
"9  c #4C382D",
"0  c #453429",
"q  c #533A2C",
"w  c #543D31",
"e  c #4B322E",
"r  c #6A3127",
"t  c #643B32",
"y  c #77461D",
"u  c #4A413B",
"i  c #5A4436",
"p  c #54453B",
"a  c #5A4538",
"s  c #59402F",
"d  c #69482A",
"f  c #644839",
"g  c #76483C",
"h  c #7B5835",
"j  c #704B2A",
"k  c #7A623F",
"l  c #444444",
"z  c #4C4A49",
"x  c #5C4D44",
"c  c #574A45",
"v  c #5B524D",
"b  c #5E5956",
"n  c #595755",
"m  c #644A46",
"M  c #64554B",
"N  c #685648",
"B  c #75584A",
"V  c #684D52",
"C  c #625953",
"Z  c #695A57",
"A  c #795259",
"S  c #796247",
"D  c #6D625A",
"F  c #6A615A",
"G  c #736153",
"H  c #746559",
"J  c #795863",
"K  c #646363",
"L  c #6C6B6B",
"P  c #6A6765",
"I  c #746A62",
"U  c #726D6B",
"Y  c #7A6965",
"T  c #7C726B",
"R  c #79766A",
"E  c #747372",
"W  c #7B7A7A",
"Q  c #797975",
"!  c #7E6D74",
"~  c #830D1A",
"^  c #8B0C19",
"/  c #930D1B",
"(  c #9C0D1B",
")  c #8C1515",
"_  c #871817",
"`  c #9A1317",
"'  c #AC0E1B",
"]  c #A30D1B",
"[  c #B40F1B",
"{  c #A11219",
"}  c #B4121C",
"|  c #BB121E",
" . c #872A1F",
".. c #B42C16",
"X. c #BA1720",
"o. c #952B23",
"O. c #94352B",
"+. c #A42C27",
"@. c #B32A29",
"#. c #C81D0B",
"$. c #FF1B0A",
"%. c #E71604",
"&. c #FD270C",
"*. c #FE2910",
"=. c #FB3915",
"-. c #C51823",
";. c #D21F2A",
":. c #DB2931",
">. c #D53134",
",. c #E22C34",
"<. c #E63239",
"1. c #85592A",
"2. c #955D29",
"3. c #845C35",
"4. c #984F34",
"5. c #996529",
"6. c #8D633C",
"7. c #986838",
"8. c #9B713A",
"9. c #A66C26",
"0. c #A26A34",
"q. c #A87339",
"w. c #B87837",
"e. c #B07230",
"r. c #FE491C",
"t. c #FD5517",
"y. c #FC6A1D",
"u. c #FB761F",
"i. c #C84D22",
"p. c #FD5522",
"a. c #C57C39",
"s. c #D67536",
"d. c #F66526",
"f. c #FB7D21",
"g. c #FF7735",
"h. c #C76615",
"j. c #845C51",
"k. c #975142",
"l. c #826244",
"z. c #88694A",
"x. c #946A48",
"c. c #9A7347",
"v. c #967557",
"b. c #946D54",
"n. c #A87946",
"m. c #B07943",
"M. c #A87C5B",
"N. c #866A69",
"B. c #88776B",
"V. c #8A7C74",
"C. c #857976",
"Z. c #917169",
"A. c #AD7363",
"S. c #FB861E",
"D. c #FA891E",
"F. c #C68839",
"G. c #D0833F",
"H. c #FB8322",
"J. c #FB8B26",
"K. c #FB932B",
"L. c #FA9828",
"P. c #FC9B34",
"I. c #F99438",
"U. c #F0863A",
"Y. c #FBA437",
"T. c #B28349",
"R. c #B58C56",
"E. c #AD8756",
"W. c #88817A",
"Q. c #91857C",
"!. c #9D8779",
"~. c #9E8069",
"^. c #AF8C7C",
"/. c #CB8E46",
"(. c #C39354",
"). c #D29D58",
"_. c #EA9643",
"`. c #F79849",
"'. c #D6A15B",
"]. c #FBA44A",
"[. c #E8A753",
"{. c #FEAA54",
"}. c #FAA657",
"|. c #FDB55C",
" X c #FBB24B",
".X c #C09B6A",
"XX c #DCA760",
"oX c #FCB862",
"OX c #E0B778",
"+X c #7D8282",
"@X c #838383",
"#X c #8A8A8A",
"$X c #8A8785",
"%X c #948A83",
"&X c #9A8D83",
"*X c #958A89",
"=X c #9C938D",
"-X c #96938F",
";X c #949494",
":X c #9C9C9B",
">X c #9A9893",
",X c #8C8F90",
"<X c #A5988F",
"1X c #A19B96",
"2X c #A79E9B",
"3X c #B39C98",
"4X c #9EA09C",
"5X c #A9A29E",
"6X c #9AA3A3",
"7X c #A4A4A4",
"8X c #AAA5A3",
"9X c #A5AAA9",
"0X c #ACADAC",
"qX c #AEA8A5",
"wX c #ABB4B3",
"eX c #B3B3B3",
"rX c #BCBCBC",
"tX c #B4BABA",
"yX c #B1AAA6",
"uX c #C69B9B",
"iX c #CE898A",
"pX c #E3BC87",
"aX c #C5BABB",
"sX c #D3AFB1",
"dX c #9ACAC9",
"fX c #A9C6C6",
"gX c #B7C2C2",
"hX c #C4C4C4",
"jX c #CBCBCB",
"kX c #C6C8C8",
"lX c #D3D3D3",
"zX c #DBDBDB",
"xX c #D0C1C2",
/* pixels */
"                          ; 2 2 8                                                               ",
"                            ) } X.@. .                                                          ",
"                  o.+.+.+.8 o.-.[ -.>.o.                                                        ",
"              o.>.,.:.:.,.<.:.| [ [ ;.>.                                                        ",
"            @.:.-.| [ [ } X.X.[ [ [ -.<. .                                                      ",
"          +.-.} [ [ [ [ ' ( / ( ' [ } >.o.                                      i q             ",
"        2 } [ [ [ ( ( ' / ~ 1 , 3 _ r g r                                     m -XB.            ",
"        < 2 ) [ / ~ / / 3 ,     5 p E :X!.k.                                M *XwX:X            ",
"            ` ( ~ ~ / ~ <     5 c W 0XeXeXuXA.g                           u @X:XtXwXT           ",
"          2 ' ^ , 1 ^ ,     5 l L 0XrXrXrXrXsXiXj.                      @ b ;X7XfXfX1X          ",
"          ) ' 3 - 3 ~ :   @ u n @XeXhXhXhXhXhXsXuXB                     & L ;XwXfXfX0X          ",
"          ` ] ,   1 1     * z L ;X7XrXjXjXjXjXhXsX3X                    0 W :XgXdXfX>X          ",
"          { ] ,   : :   @ = n @X;X:X0XhXjXlXlXjXxXaXB.                  u #X7XkXdXfXW.          ",
"          { ] ,         + = b #X;X7X0XeXrXkXjXjXaXaX2X                @ n ;X0XlXtXfXD           ",
"          ` ' ,         + l K W.T V.%X1XtXrXrX&Xb.z.8XB               @ L ;XrXzXhX9X            ",
"          ) [ 1         + l K Y 5.w.e.l.0XrX8X7.G.7.1XY               * W :XlXzXkX-X            ",
"          2 } )         % l P D w.w.2.7.1XrX1X7.2.5.&XB.              u #X7XzXjXhXV.            ",
"            ` `         % l L G w.0.1.n.Q.eX%Xq.1.3.Q.V.            # v ;XtXlXrXrXG             ",
"            < )         % l L B a.n.R z.z.v.z.S R x.B.Q.            + K #X5XrXrXqX              ",
"              ; -       % l P B a.c.W S ).'.).S +Xx.B.Q.            0 D z.7.b.eX-X              ",
"                        % l P D 5.q.n.T.R.n.n.n.6.h V.Q.        7     h q.0.5.&XB.              ",
"                      @ 9 p C U D S z.c.7.M.x.8.G Q ;XQ.      h R.h   8.4.O.9.j                 ",
"                    f N.*X*XV.Y D I U h m.n.T.c.T $X;XQ.s     6.OXR.j 8.w.9.5.                  ",
"                m Y C.N.x.b.!.2X8X1X%XB.z.d 3.n.I +X$XT U i   3.R.f P B q.e.1.3.c.v.            ",
"          a V J Y j.7.a.`.`./.m.v.!.<XtXyXn.XX(.D U M Z W C s 7 d p P m f Z q 8.pX^.            ",
"          V B 6.w.s.`.}.}.{.{.].I._./.v.yXl.c.3.i x x E W D %XM n b q 7 M L p j .Xl.            ",
"          V 3.}.{.`.}.}.|.|.].P.D.Y.].M.qXI W E T *XC U W D :XI C K r 4 t C q 7 j               ",
"          V B [.{.`.}.oXoX XY.K.D.P.`.M.8XW.6X:X7X7XZ E I T :XT b C 2 ^ m L a                   ",
"          m B [.|.`.}.|. XY.Y.K.D.I._.~.5X>XtX0X7X7XM Z D @X#XU a a , _ m M                     ",
"          m V /.|.].}.].Y.Y.P.K.D.I.U.!.1X4XtX9X7X:Xs C E W Q G .XR.2.y D F                     ",
"          w Z n.|.].I.P.P.P.K.J.f.g.s.<X%X9XwX7X7XQ.  w C L E G E.(.F.w.c.z.                    ",
"            Z l.[.P.J.K.K.K.J.D.d.g.0.8XQ.wX9X;X;XG       i m i     y 5.T.v.                    ",
"            x Z F.P.H.J.J.J.D.y.p.d.b.8XW.6X,X@XT                                               ",
"            0 n h L.D.H.H.D.y.r.r.i.&X%XQ W I D B.f                                             ",
"              c v 9.D.f.u.t.=.=.=.k.8XN M D V.>X0X-X                                            ",
"                b N h.t.=.*.*.*...-XQ.Z M @X@X@X#X7X%X                                          ",
"                q K g #.$.$.&...B.-Xv p v L L L F c x q 6                                       ",
"                  p L B ..%...N.-Xx z 5 u z z 9 o o $ e A f                                     ",
"                    9 I T B C.$XB 9 &   @ * 0 O X % $ = J N.9                                   ",
"                    . o M C.I m N.C 5       O . X $ $ = Z ! c                                   ",
"                    . X % * * c Y v 5         O o % $ * x x 0                                   ",
"                      # + + & 9 w 6                                                             "
};
