/* XPM */
static char *r1[] = {
/* columns rows colors chars-per-pixel */
"45 45 148 2 ",
"   c None",
".  c #0D0E13",
"X  c #0F1014",
"o  c #0E1519",
"O  c #111114",
"+  c #14191E",
"@  c #2E261E",
"#  c #1B1C25",
"$  c #1E1F29",
"%  c #2F2920",
"&  c #39322F",
"*  c #4F1F1F",
"=  c #501F1F",
"-  c #591F1F",
";  c #611F1F",
":  c #791E1E",
">  c #552221",
",  c #582825",
"<  c #5D2C28",
"1  c #493E33",
"2  c #6B2020",
"3  c #742020",
"4  c #7D2020",
"5  c #762A27",
"6  c #643434",
"7  c #773131",
"8  c #3E403F",
"9  c #42423E",
"0  c #49483F",
"q  c #5E4C3A",
"w  c #724136",
"e  c #69553F",
"r  c #1F4B48",
"t  c #294F49",
"y  c #304840",
"u  c #235450",
"i  c #285650",
"p  c #26605C",
"a  c #276560",
"s  c #286560",
"d  c #296B65",
"f  c #386D64",
"g  c #376D64",
"h  c #2B726C",
"j  c #357169",
"k  c #297771",
"l  c #2C7A74",
"z  c #2C7F79",
"x  c #3A7B71",
"c  c #454644",
"v  c #454847",
"b  c #4B4842",
"n  c #474A49",
"m  c #494C4B",
"M  c #4E504F",
"N  c #4A5C4F",
"B  c #5C5144",
"V  c #51514D",
"C  c #5F574C",
"Z  c #474B52",
"A  c #4D5151",
"S  c #4A5D50",
"D  c #545553",
"F  c #595B59",
"G  c #62564F",
"H  c #6D5B4E",
"J  c #765F4F",
"K  c #6E5F58",
"L  c #655B54",
"P  c #5C715F",
"I  c #6C6055",
"U  c #71655A",
"Y  c #646867",
"T  c #696664",
"R  c #7B6C60",
"E  c #6A7560",
"W  c #843939",
"Q  c #855B46",
"!  c #8C644D",
"~  c #876C58",
"^  c #916C55",
"/  c #8F735A",
"(  c #99765F",
")  c #97785A",
"_  c #9A7C5F",
"`  c #937357",
"'  c #B6775A",
"]  c #826E69",
"[  c #827164",
"{  c #8B7362",
"}  c #867E63",
"|  c #89746C",
" . c #9D7766",
".. c #957A67",
"X. c #9B7B64",
"o. c #927A6A",
"O. c #997F7F",
"+. c #AE7064",
"@. c #A07F64",
"#. c #AA7B68",
"$. c #B17467",
"%. c #2E837C",
"&. c #31867F",
"*. c #7D856C",
"=. c #8F8468",
"-. c #8E896C",
";. c #9C836E",
":. c #998271",
">. c #9D8875",
",. c #A38365",
"<. c #A3846A",
"1. c #AA866B",
"2. c #A08968",
"3. c #AC896D",
"4. c #B18E69",
"5. c #B98362",
"6. c #AF8B70",
"7. c #B58575",
"8. c #B28D73",
"9. c #AE9373",
"0. c #AC907B",
"q. c #B49175",
"w. c #BA9177",
"e. c #B4927B",
"r. c #BA947B",
"t. c #BE9B73",
"y. c #BEA27A",
"u. c #C0997E",
"i. c #C59A72",
"p. c #CCA479",
"a. c #D1A77B",
"s. c #D4AB7D",
"d. c #2E8A83",
"f. c #33958D",
"g. c #39968D",
"h. c #349991",
"j. c #B29882",
"k. c #BD9A82",
"l. c #C09B83",
"z. c #C19A81",
"x. c #C29E84",
"c. c #C6A086",
"v. c #C3AE85",
"b. c #D6AE80",
"n. c #DEB282",
"m. c #DEB282",
"M. c #E2B584",
"N. c #E2B584",
/* pixels */
"                                                                                          ",
"                                                                                          ",
"                                        F F D m m m m m m                                 ",
"                                    D D m m m m m m m m m m m                             ",
"                                Y A m m m m m m m m m m m m m                             ",
"                              F A m m m m m m n m m m m m m m m m                         ",
"                            T m m m m v c 8 8 c c c n m c c m m m                         ",
"                            F m m m c 8 8 8 C c 9 0 n n n c c c c                         ",
"                            D m n c 8 8 8 m c 8 0 J _ 1.1.n n c n                         ",
"                          F m m m 8 9 H D V c 9 B ~ X.1.1.1.8.1.1.                        ",
"                          M m n c 8 B / 6./ J j.r.r.1.8.q.8.8.8.q.                        ",
"                          M m c 8 n 6.6.l.l.6.r.r.;.0.j.e.r.r.r.r.                        ",
"                        @ D V c 8 6./ l.l.r.l.6.I U R [ { e.r.r.e.                        ",
"                        @ D m c 0 j./ l.6.k.l.{ ;.1.1.@.,.1.1.1.1.                        ",
"                        @ D m c B j.1.1.k.r.6.;.>.[ L G K ..1.1.H                         ",
"                          @ m c @ r.l.1.r.k.6.r.:.o.T Z T { V ( ~                         ",
"                          @ D n @ l.6.l.6.r.6.r.6.o.| ] { X.I 8.1.                        ",
"                            @ n 1.l.8.r.6.l.l.6.j.0.e.1.8.1.1.r.r.                        ",
"                              % 1.1.r.l.r.6.l.r.r.k.r.r.8.8.1.r.r.                        ",
"                              @ e r.6.l.r.l.l.6.r.r.l.k.r.6.8.r.r.                        ",
"                                } 1.k.r.6.r.l.l.6.r.r.l.8.8.r.l.l.                        ",
"                                t r.,.k.6.l.r.l.r.l.l.l.7.l.k.c.l.                        ",
"                              d &.y e 1.l.l.6.6.l.k.r.u.w.8.^ 1.8.                        ",
"                              l h.l } i.s.1.l.6.l.6.r.r.r.8.1.8.q.                        ",
"                            s f.f.f.x =.p.m.m.1.1.6.k.r.8.q.q.r.,.                        ",
"                            %.f.f.f.f.x P 9.t.s.m.1.j.r.9.X. .1.#.                        ",
"                          u l %.k h f.f.d.j f *.2.4.1.e.6.1.7.$.+.                        ",
"                          -.-.-.*.&.f.f.f.f.f.z g N S 1.1.6.6.7.7.                        ",
"                          N.N.N.v.g.f.f.f.f.f.f.f.d.d.d.,.1.1.1.6.                        ",
"                          m.m.N.v.g.f.f.f.f.f.f.f.f.f.f.%.1.1.8.8.                        ",
"                            m.N.y.x f.f.f.f.f.f.f.f.f.f.%.u ,.1.1.                        ",
"                            m.N.y.i h %.f.f.f.f.f.f.f.f.d.u   1.,.                        ",
"                            m.m.b.E r u a a a a a a a a p       1.                        ",
"                            s.s.a.B o + + + + + + + + + +                                 ",
"                                q O . . . # $ $ $ # .                                     ",
"                                    . . X # $ $ # +                                       ",
"                                      1 X + + + &                                         ",
"                                      Q ` ) ,.,.!                                         ",
"                                      > < w 5.' 5                                         ",
"                                      = * = - ; ;                                         ",
"                                      = - 3 3 ; 6                                         ",
"                                      * 2 4 4 : W O.                                      ",
"                                      = = ; 3 3 : 7 ,                                     ",
"                                        * = = = = = =                                     ",
"                                                                                          "
};
