/* XPM */
static char *r2[] = {
/* columns rows colors chars-per-pixel */
"45 45 165 2 ",
"   c None",
".  c #070A0F",
"X  c #070A10",
"o  c #0E0F13",
"O  c #13151C",
"+  c #181719",
"@  c #2E261E",
"#  c #161823",
"$  c #1A1B23",
"%  c #1E1F29",
"&  c #2F2A22",
"*  c #2C2723",
"=  c #332B24",
"-  c #3E342A",
";  c #4F1E1F",
":  c #501F1F",
">  c #5C1F1F",
",  c #621F1F",
"<  c #691E1E",
"1  c #751E1F",
"2  c #7C1F1F",
"3  c #552422",
"4  c #592926",
"5  c #5B2A2A",
"6  c #4A3E33",
"7  c #6C2020",
"8  c #6F2E2E",
"9  c #642B29",
"0  c #7D2020",
"q  c #6E3C33",
"w  c #7E3E34",
"e  c #28403A",
"r  c #3E403F",
"t  c #42423E",
"y  c #49483F",
"u  c #554739",
"i  c #594738",
"p  c #76483A",
"a  c #69553F",
"s  c #1E4644",
"d  c #1D4F4C",
"f  c #204947",
"g  c #234B4A",
"h  c #394B41",
"j  c #23524E",
"k  c #235550",
"l  c #2C5751",
"z  c #255A55",
"x  c #2C635D",
"c  c #3F6056",
"v  c #34625A",
"b  c #2E6861",
"n  c #2A6E69",
"m  c #2B726D",
"M  c #30726B",
"N  c #2B7771",
"B  c #2E7F78",
"V  c #2C7C76",
"C  c #327971",
"Z  c #454644",
"A  c #454847",
"S  c #4B4842",
"D  c #474A49",
"F  c #494C4B",
"G  c #4E504F",
"H  c #4B5A4D",
"J  c #5B5046",
"K  c #51514D",
"L  c #5F574C",
"P  c #474B52",
"I  c #4D5151",
"U  c #545553",
"Y  c #595B59",
"T  c #6B5845",
"R  c #62564F",
"E  c #6D5B4E",
"W  c #765F4F",
"Q  c #6E5F58",
"!  c #655B54",
"~  c #496559",
"^  c #536A5B",
"/  c #6C6055",
"(  c #626F5D",
")  c #71655A",
"_  c #76745D",
"`  c #646867",
"'  c #696664",
"]  c #7B6C60",
"[  c #777D65",
"{  c #876C58",
"}  c #966C54",
"|  c #8F735A",
" . c #907559",
".. c #99765F",
"X. c #967A5C",
"o. c #9A7C5F",
"O. c #A1765A",
"+. c #BC7E5F",
"@. c #826E69",
"#. c #827164",
"$. c #8B7362",
"%. c #887968",
"&. c #9D7766",
"*. c #9B7B64",
"=. c #927A6A",
"-. c #957A67",
";. c #857373",
":. c #AE7064",
">. c #A07F64",
",. c #AA7B68",
"<. c #B17467",
"1. c #2F857E",
"2. c #468276",
"3. c #8D8265",
"4. c #918467",
"5. c #908568",
"6. c #9C836E",
"7. c #9D8C6C",
"8. c #9B8573",
"9. c #A38265",
"0. c #A3846A",
"q. c #AA866B",
"w. c #AC896D",
"e. c #AA8965",
"r. c #B4926C",
"t. c #AF8B70",
"y. c #B58575",
"u. c #B28D73",
"i. c #AF9175",
"p. c #AC907B",
"a. c #B49175",
"s. c #BA9177",
"d. c #B39C76",
"f. c #BF9977",
"g. c #B4927B",
"h. c #BA947B",
"j. c #BEA077",
"k. c #BCA078",
"l. c #C29C73",
"z. c #C0997E",
"x. c #C5A177",
"c. c #CCAA7E",
"v. c #CBA277",
"b. c #D1A77A",
"n. c #D5AB7D",
"m. c #328F88",
"M. c #2F948C",
"N. c #33948D",
"B. c #38968D",
"V. c #41978C",
"C. c #41988C",
"Z. c #589180",
"A. c #B29882",
"S. c #BD9A82",
"D. c #98A787",
"F. c #C09B83",
"G. c #C19A81",
"H. c #C29E84",
"J. c #C6A086",
"K. c #CDAF83",
"L. c #DAAF80",
"P. c #CFB083",
"I. c #DEB282",
"U. c #E1B483",
"Y. c #E6BA87",
/* pixels */
"                                                                                          ",
"                                                                                          ",
"                                                                                          ",
"                                          Y Y U F F F F F F                               ",
"                                      U U F F F F F F F F F F F                           ",
"                                  ` I F F F F F F F F F F F F F                           ",
"                                Y I F F F F F F D F F F F F F F F F                       ",
"                              ' F F F F A Z r r Z Z Z S F Z Z F F F                       ",
"                              Y F F F Z r r r L Z t S S S S Z Z Z Z                       ",
"                              U F S Z r r r F Z r S W o.q.q.y S Z S                       ",
"                            Y F F F r t E U K Z t J { *.0.q.q.u.t.q.                      ",
"                            G F S Z r J | t.| W A.h.h.q.u.a.u.u.u.a.                      ",
"                            G F Z r S t.t.F.F.t.h.h.6.p.A.g.h.h.h.h.                      ",
"                          @ U K Z r t.| F.F.h.F.t./ ) ] #.$.g.h.h.g.                      ",
"                          @ U F Z y A.| F.t.F.F.$.6.0.0.>.9.0.q.q.q.                      ",
"                          @ U F Z J A.t.t.F.h.t.6.8.#.! R Q -.0.0.E                       ",
"                            @ F Z @ h.F.t.h.F.t.h.8.=.' P ' $.K ..{                       ",
"                            @ U S @ F.t.F.t.h.t.h.t.=.%.@.$.*./ u.q.                      ",
"                              @ S 0.F.t.h.t.F.F.t.A.p.g.q.u.q.q.h.h.                      ",
"                                & 0.0.h.F.h.t.F.h.h.S.h.h.u.u.q.h.h.                      ",
"                                @ a h.t.F.h.F.F.t.h.h.F.S.h.t.u.h.h.                      ",
"                                  %.0.F.h.t.h.F.F.t.h.h.F.u.u.h.F.F.                      ",
"                                j e h.0.F.t.F.h.F.h.F.F.F.y.F.S.J.F.                      ",
"                              j z B h 9.0.F.F.q.t.F.S.h.z.s.u.} 0.u.                      ",
"                              j n N.C 5.l.L.0.F.t.F.t.h.h.h.u.q.u.a.                      ",
"                            j k m.N.N.v 3.x.I.I.0.0.t.S.h.u.a.a.h.9.                      ",
"                            j m N.N.m.B b ~ 4.7.n.n.0.A.h.i.*.*.q.,.                      ",
"                            j x M M x m.N.V N x _ X.X.q.g.t.q.y.<.:.                      ",
"                            ^ k.f.j.Z.M.N.N.N.m.C v v v 0.q.t.t.y.y.                      ",
"                            c d.U.U.D.B.N.N.N.N.N.N.N.N.1.9.q.q.q.t.                      ",
"                            d [ I.I.P.V.N.N.N.N.N.N.N.N.1.k 0.q.u.u.                      ",
"                            j l k.U.K.C.N.N.N.N.N.N.N.N.1.k   9.0.0.                      ",
"                            j j d.U.c.2.N.N.N.N.N.N.N.N.1.k     q.9.                      ",
"                            j s H L.I.c.( s g g g f s s f         q.                      ",
"                                = l.v.e.& o $ % % $ o o o                                 ",
"                                  = * + X O # # $ O o o o                                 ",
"                                    u T T T T i o o o o o                                 ",
"                                    q } b.n.Y.r.o o . u X.                                ",
"                                  : ; 3 9 w +.    - 6  .O.                                ",
"                                : : : < , , <       O.p 3 :                               ",
"                                ; , 0 0 1 5         4 ; : : : :                           ",
"                                  > 7 0 2 8 ;.      ; : : : :                             ",
"                                  ; : > 7 1 9       : : :                                 ",
"                                        : : :                                             ",
"                                                                                          "
};
