/* XPM */
static char *r3[] = {
/* columns rows colors chars-per-pixel */
"45 45 151 2 ",
"   c None",
".  c #0D0E12",
"X  c #0F1014",
"o  c #111217",
"O  c #14141A",
"+  c #1E1C1C",
"@  c #211F1F",
"#  c #2E261E",
"$  c #1E1F29",
"%  c #1C3E3D",
"&  c #2F2920",
"*  c #342B24",
"=  c #4F1E1F",
"-  c #501F1F",
";  c #5C1F1F",
":  c #6A1F1F",
">  c #741D1E",
",  c #4F2020",
"<  c #443930",
"1  c #6C2020",
"2  c #6C2825",
"3  c #732120",
"4  c #7D2020",
"5  c #73372F",
"6  c #6D3D33",
"7  c #1E413F",
"8  c #3E403F",
"9  c #42423E",
"0  c #49483F",
"q  c #544638",
"w  c #57483A",
"e  c #6F4036",
"r  c #754639",
"t  c #69553F",
"y  c #1F4745",
"u  c #1F4845",
"i  c #224B4A",
"p  c #21524E",
"a  c #3E5349",
"s  c #245450",
"d  c #2D5B55",
"f  c #275E59",
"g  c #245854",
"h  c #325C55",
"j  c #27635E",
"k  c #2E615A",
"l  c #34625A",
"z  c #256560",
"x  c #2D6A64",
"c  c #2A716B",
"v  c #30726B",
"b  c #2B7771",
"n  c #2C7A74",
"m  c #307971",
"M  c #454644",
"N  c #454847",
"B  c #4B4842",
"V  c #474A49",
"C  c #494C4B",
"Z  c #4E504F",
"A  c #5B5046",
"S  c #51514D",
"D  c #5F574C",
"F  c #474B52",
"G  c #4D5151",
"H  c #545553",
"J  c #595B59",
"K  c #62564F",
"L  c #6D5B4E",
"P  c #765F4F",
"I  c #6E5F58",
"U  c #655B54",
"Y  c #785B5B",
"T  c #496559",
"R  c #51695A",
"E  c #6C6055",
"W  c #71655A",
"Q  c #76745D",
"!  c #646867",
"~  c #696664",
"^  c #7B6C60",
"/  c #843939",
"(  c #895644",
")  c #84674F",
"_  c #876C58",
"`  c #916C55",
"'  c #897055",
"]  c #8E735A",
"[  c #99765F",
"{  c #9B7C5E",
"}  c #977B5C",
"|  c #826E69",
" . c #827164",
".. c #8B7362",
"X. c #887968",
"o. c #9D7766",
"O. c #957A67",
"+. c #9B7B64",
"@. c #927A6A",
"#. c #977777",
"$. c #AE7064",
"%. c #A07F64",
"&. c #AA7B68",
"*. c #B17467",
"=. c #2E837C",
"-. c #8E8366",
";. c #918467",
":. c #9C836E",
">. c #9D8C6C",
",. c #9D8875",
"<. c #998271",
"1. c #A38266",
"2. c #AF8362",
"3. c #A3846A",
"4. c #AA866B",
"5. c #AC896D",
"6. c #B58966",
"7. c #B5926D",
"8. c #AF8B70",
"9. c #B58575",
"0. c #B28D73",
"q. c #AF9175",
"w. c #AC907B",
"e. c #A59876",
"r. c #B49175",
"t. c #BA9177",
"y. c #B4927B",
"u. c #BA947B",
"i. c #BFA077",
"p. c #BEA178",
"a. c #B2A47E",
"s. c #C3956E",
"d. c #C0997E",
"f. c #C39D74",
"g. c #C5A177",
"h. c #CDA57A",
"j. c #328D85",
"k. c #33958D",
"l. c #39978D",
"z. c #B29882",
"x. c #BD9A82",
"c. c #BC9B83",
"v. c #C09B83",
"b. c #C19A81",
"n. c #C29E84",
"m. c #C6A086",
"M. c #C4AF85",
"N. c #DEB282",
"B. c #DEB282",
"V. c #E1B484",
"C. c #E1B484",
/* pixels */
"                                                                                          ",
"                                                                                          ",
"                                                                                          ",
"                                                                                          ",
"                                          J J H C C C C C C                               ",
"                                      H H C C C C C C C C C C C                           ",
"                                  ! G C C C C C C C C C C C C C                           ",
"                                J G C C C C C C V C C C C C C C C C                       ",
"                              ~ C C C C N M 8 8 M M M B C M M C C C                       ",
"                              J C C C M 8 8 8 D M 9 B B B B M M M M                       ",
"                              H C B M 8 8 8 C M 8 B P { 4.4.0 0 M B                       ",
"                            J C C C 8 9 L H S M 9 A _ +.3.4.4.0.6.5.                      ",
"                            Z C B M 8 A ] 8.] P z.u.u.5.0.r.0.0.0.r.                      ",
"                            Z C M 8 B 8.8.v.v.8.u.u.:.w.z.y.u.u.u.u.                      ",
"                          # H S M 8 8.] v.v.u.v.8.E W ^  ...y.u.u.y.                      ",
"                          # H C M 0 z.] v.8.v.v...:.3.3.%.1.3.5.5.4.                      ",
"                          # H C M A z.8.8.v.u.8.:.,. .U K I O.3.3.L                       ",
"                            # C M # u.v.8.u.v.8.u.<.@.~ F ~ ..S [ _                       ",
"                            # H B # v.8.v.8.u.8.u.8.@.X.| ..+.E 0.4.                      ",
"                              # B 3.v.8.u.8.v.v.8.z.w.y.4.0.8.5.u.u.                      ",
"                                & 3.3.u.v.u.8.v.u.u.x.u.u.0.0.5.u.u.                      ",
"                                  t u.8.v.u.v.v.8.u.u.v.x.u.8.0.u.u.                      ",
"                                c X.3.v.u.5.u.v.v.8.u.u.v.0.0.u.v.v.                      ",
"                              c j.f u.3.v.8.v.u.v.u.v.v.v.9.v.x.m.v.                      ",
"                            f =.k.=.d -.3.v.v.8.8.v.x.u.d.t.0.` 3.0.                      ",
"                            x k.k.k.=.h -.g.3.v.8.v.8.u.u.u.0.4.0.r.                      ",
"                          g j.k.k.j.k.=.x T ;.>.3.3.8.x.u.0.r.r.u.1.                      ",
"                          d x v x c k.k.k.n b k Q } 3.z.u.q.+.+.4.&.                      ",
"                          p.p.i.e.j.k.k.k.k.k.j.m l l 5.y.8.4.9.*.$.                      ",
"                          V.V.V.M.l.k.k.k.k.k.k.k.k.k.k.3.5.8.8.9.9.                      ",
"                          N.N.V.a.k.k.k.k.k.k.k.k.k.k.k.=.1.5.4.5.8.                      ",
"                          N.N.N.R z j.k.k.k.k.k.k.k.k.k.=.s 3.5.0.0.                      ",
"                          N.V.e.h p j n k.k.k.k.k.k.k.k.=.s   1.3.3.                      ",
"                          N.N.h.a % % 7 u u y y i i i i i       5.1.                      ",
"                          h.h.f.+ . . . . . . . O $ $ $ o         5.                      ",
"                                  . . . . . . . X $ $ $ O                                 ",
"                                    < O . . . . . X O $ O                                 ",
"                                    r ) ' * + . . . . @ ]                                 ",
"                                    = e 6.7.    * w q { 6.                                ",
"                                  - - = 6         V.s.( 2 1 #.                            ",
"                                  - - - =         2.5 > : 4 / Y                           ",
"                                  - - - -         , ; 4 4 4 :                             ",
"                                    - - - -         - 1 3 ;                               ",
"                                                    = -                                   ",
"                                                                                          "
};
