/* XPM */
static char *top01[] = {
/* columns rows colors chars-per-pixel */
"45 45 196 2 ",
"   c None",
".  c #0B0B10",
"X  c #0B0D12",
"o  c #0E0F13",
"O  c #0F1014",
"+  c #0F1118",
"@  c #111217",
"#  c #101418",
"$  c #101518",
"%  c #111619",
"&  c #14151B",
"*  c #13161C",
"=  c #14151C",
"-  c #14151D",
";  c #16161D",
":  c #15171E",
">  c #16171F",
",  c #14191D",
"<  c #17181F",
"1  c #141A1E",
"2  c #141A1F",
"3  c #151A1F",
"4  c #151B1F",
"5  c #2E271E",
"6  c #2F271E",
"7  c #2E281F",
"8  c #36251E",
"9  c #35261E",
"0  c #3F231E",
"q  c #161720",
"w  c #171820",
"e  c #151B20",
"r  c #181920",
"t  c #181921",
"y  c #1A1A22",
"u  c #1F1F23",
"i  c #1B1B24",
"p  c #1B1B25",
"a  c #1B1C26",
"s  c #1C1C25",
"d  c #1C1D27",
"f  c #1D1E28",
"g  c #1E1E29",
"h  c #1E1F29",
"j  c #1E1F2A",
"k  c #152526",
"l  c #162728",
"z  c #1F202A",
"x  c #162829",
"c  c #172829",
"v  c #172D2E",
"b  c #1A3736",
"n  c #1A3837",
"m  c #1C3B39",
"M  c #222024",
"N  c #2F2A2A",
"B  c #362C22",
"V  c #3A3025",
"C  c #4E1B1C",
"Z  c #4F1C1D",
"A  c #4F1E1E",
"S  c #4F1F1F",
"D  c #501F1F",
"F  c #511F1F",
"G  c #521F1F",
"H  c #531F1F",
"J  c #541F1F",
"K  c #551F1F",
"L  c #561F1F",
"P  c #591F1F",
"I  c #5A1F1F",
"U  c #5E1F1F",
"Y  c #611E1F",
"T  c #601F1F",
"R  c #611F1F",
"E  c #621E1F",
"W  c #631E1F",
"Q  c #621F1F",
"!  c #4D201F",
"~  c #402F25",
"^  c #532824",
"/  c #483D34",
"(  c #682020",
")  c #692020",
"_  c #6A2020",
"`  c #682D28",
"'  c #702020",
"]  c #712020",
"[  c #722020",
"{  c #732020",
"}  c #762020",
"|  c #772020",
" . c #7C2020",
".. c #7E2020",
"X. c #7C3F34",
"o. c #1D403E",
"O. c #534639",
"+. c #56483A",
"@. c #714136",
"#. c #74473A",
"$. c #74483B",
"%. c #764E3F",
"&. c #214B48",
"*. c #224F4C",
"=. c #22504C",
"-. c #22514D",
";. c #23514D",
":. c #22514E",
">. c #23524E",
",. c #23534E",
"<. c #22534F",
"1. c #23534F",
"2. c #23544F",
"3. c #255B57",
"4. c #255C57",
"5. c #285B55",
"6. c #295B56",
"7. c #225C59",
"8. c #255E59",
"9. c #27635E",
"0. c #2A635D",
"q. c #276560",
"w. c #276661",
"e. c #286661",
"r. c #286A65",
"t. c #28716B",
"y. c #29746E",
"u. c #2C7670",
"i. c #2C7771",
"p. c #2C7871",
"a. c #2C7872",
"s. c #2C7972",
"d. c #2D7B75",
"f. c #2E7E77",
"g. c #2B7F79",
"h. c #2E7F78",
"j. c #2E7F79",
"k. c #7D5B47",
"l. c #4C675A",
"z. c #60705E",
"x. c #697561",
"c. c #814337",
"v. c #975846",
"b. c #82654E",
"n. c #83674F",
"m. c #896E54",
"M. c #90775A",
"N. c #92785A",
"B. c #92785B",
"V. c #B7795C",
"C. c #2B807A",
"Z. c #2E8079",
"A. c #2E827B",
"S. c #2F847D",
"D. c #2F857E",
"F. c #2F867F",
"G. c #8D886B",
"H. c #8E896C",
"J. c #908A6C",
"K. c #918A6C",
"L. c #968D6E",
"P. c #BF8161",
"I. c #BF8262",
"U. c #BD986F",
"Y. c #C18363",
"T. c #C1966F",
"R. c #CAA277",
"E. c #D2A87C",
"W. c #D3AA7D",
"Q. c #D5AB7D",
"!. c #308982",
"~. c #308A82",
"^. c #318D86",
"/. c #318E87",
"(. c #318F87",
"). c #328F87",
"_. c #328F88",
"`. c #329088",
"'. c #32928A",
"]. c #32928B",
"[. c #33938B",
"{. c #33948C",
"}. c #33958D",
"|. c #33968E",
" X c #33978E",
".X c #33978F",
"XX c #34978F",
"oX c #DEB282",
"OX c #DFB282",
"+X c #DFB383",
"@X c #E2B483",
"#X c #E3B483",
"$X c #E3B583",
"%X c #E3B685",
"&X c #E6B684",
"*X c #E8B785",
/* pixels */
"                                                                                          ",
"                                                                                          ",
"                                          ' ' '                                           ",
"                                    D D D D D D D D D                                     ",
"                                D D D D D D D D D D D D D                                 ",
"                              D D D D D D D D D D D D D D D                               ",
"                            D D D D D D D D D D D D D D D D D                             ",
"                          D D D D D D D D D D D D D D D D D D D                           ",
"                        D D D D D D D D D D D D D D D D D D D D D                         ",
"                        D D D D D D D D D D D D D D D D D D D D D                         ",
"                        D D D D D D D D D D D D D D D D D D D D D                         ",
"                      D D D D D D D D D D D D D D D D D D D D D D D                       ",
"                      A D D D D D D D D D D D D D D D D D D D D D A                       ",
"                    +X@.A D D D D D D D D D D D D D D D D D D D A @.+X                    ",
"                    +XT.^ D D D D D D D D D D D D D D D D D D D ^ T.+X                    ",
"                    +XR.~ 0 ! A A A A A A A A A A A A A A A ! 0 ~ R.+X                    ",
"                    +XR.V 5 8 8 8 8 8 8 8 8 8 8 8 8 8 8 8 8 8 5 V R.+X                    ",
"                      U.B 5 5 5 5 5 5 5 5 5 5 5 5 5 5 5 5 5 5 5 B U.                      ",
"                        5 5 5 5 5 5 5 5 5 5 5 5 5 5 5 5 5 5 5 5 5                         ",
"                          5 5 5 5 5 5 5 5 5 5 5 5 5 5 5 5 5 5 5                           ",
"                          5 7 7 7 7 7 7 7 7 7 7 7 7 7 7 7 7 7 5                           ",
"                          0.6.6.6.6.6.6.6.6.6.6.6.6.6.6.6.6.6.0.                          ",
"                        }.}.}.}.}.}.}.}.}.}.}.}.}.}.}.}.}.}.}.}.}.                        ",
"                      }.}.}.}.}.}.}.}.}.}.}.}.}.}.}.}.}.}.}.}.}.}.}.                      ",
"                      }.}.}.}.}.}.}.}.}.}.}.}.}.}.}.}.}.}.}.}.}.}.}.}.                    ",
"                    }.}.}.}.}.}.}.}.}.}.}.}.}.}.}.}.}.}.}.}.}.}.}.}.}.}.                  ",
"                    j.j.j.r.~.}.D.j.D.D.i.~.}.}.D.s.D.j.j.~.}.j.y.D.j.j.                  ",
"                    G.G.J.l.y.}.s.i.s.s.~.}.}.}.}.D.i.s.i.D.}.w.x.J.G.G.                  ",
"                    &X&X&Xz.7.~.}.}.}.}.}.}.}.}.}.}.}.}.}.}.D.<.J.&X&X&X                  ",
"                  +X+X+X&X<.<.e.~.}.}.}.}.}.}.}.}.}.}.}.}.D.3.<.  &X+X+X+X                ",
"                  +X+X+X  <.<.<.e.}.}.}.}.}.}.}.}.}.}.}.F.3.<.<.    +X+X+X                ",
"                  +X+X+X  n o.<.<.e.D.}.}.}.}.}.}.}.~.s.3.<.*.m     +X+X+X                ",
"                  +X+X+X  X # c l b <.9.w.w.w.w.w.w.7.*.v l k X   &X+X+X+X                ",
"                  Q.Q.Q.  X # s s # w < < < # # < < < w # s s #   Q.Q.Q.Q.                ",
"                            w h h h h h h #   O s h h h h h s #                           ",
"                            + h h h h s #         w h z h h s X                           ",
"                            / s < < # N           O.s # # # M +.                          ",
"                            %.m.N.N.M.k.          %.n.N.N.N.n.%.                          ",
"                            D v.Y.I.V.`           A c.I.I.I.X.A                           ",
"                            P T T T T P             T T T T T                             ",
"                            A D ' ' T A             D ) ' ) D A                           ",
"                            D ' ......T           D ) ......) D                           ",
"                            D ) ' ' ' P           D T ' ' ' T D                           ",
"                              D D D D               D D D D D                             ",
"                                                                                          "
};
