/* XPM */
static char *top02[] = {
/* columns rows colors chars-per-pixel */
"45 45 208 2 ",
"   c None",
".  c #0A0C11",
"X  c #0A0D11",
"o  c #0D0D11",
"O  c #0D0D12",
"+  c #0C0E12",
"@  c #0D0E13",
"#  c #0C0F13",
"$  c #0E0E12",
"%  c #0E0F13",
"&  c #0F1115",
"*  c #111217",
"=  c #121318",
"-  c #101518",
";  c #101519",
":  c #111619",
">  c #171718",
",  c #16161D",
"<  c #16171F",
"1  c #14191E",
"2  c #17181F",
"3  c #151B1F",
"4  c #1E1B1D",
"5  c #1F1C1C",
"6  c #2B241C",
"7  c #2D251D",
"8  c #2F251C",
"9  c #2E261D",
"0  c #2E271E",
"q  c #2F271E",
"w  c #2E281F",
"e  c #32231C",
"r  c #31251D",
"t  c #30271E",
"y  c #3B241E",
"u  c #151B20",
"i  c #131E20",
"p  c #131F21",
"a  c #181920",
"s  c #191A22",
"d  c #1A1B23",
"f  c #1A1B24",
"g  c #1D1E27",
"h  c #1E1E28",
"j  c #1E1E29",
"k  c #1E1F29",
"l  c #1E1F2A",
"z  c #152526",
"x  c #1A2027",
"c  c #152728",
"v  c #1F202A",
"b  c #162829",
"n  c #172A2B",
"m  c #1B3938",
"M  c #362422",
"N  c #471F1E",
"B  c #4B1D1D",
"V  c #4D1C1D",
"C  c #4F1E1E",
"Z  c #4F1E1F",
"A  c #4E1F1F",
"S  c #4F1F1F",
"D  c #501E1F",
"F  c #501F1F",
"G  c #511F1F",
"H  c #521F1F",
"J  c #531F1F",
"K  c #561F1F",
"L  c #571F1F",
"P  c #591F1F",
"I  c #5C1F1F",
"U  c #601E1E",
"Y  c #601E1F",
"T  c #611F1F",
"R  c #651F1F",
"E  c #6F1F1F",
"W  c #711F1F",
"Q  c #43221F",
"!  c #4A201F",
"~  c #4B201F",
"^  c #592725",
"/  c #592825",
"(  c #5A2926",
")  c #5C2B27",
"_  c #403528",
"`  c #4C352D",
"'  c #672020",
"]  c #682020",
"[  c #6A2020",
"{  c #6B2020",
"}  c #712020",
"|  c #772020",
" . c #7A2020",
".. c #7F2020",
"X. c #6E3B32",
"o. c #6E3E34",
"O. c #5F4D39",
"+. c #5B4B3C",
"@. c #6C493A",
"#. c #76483B",
"$. c #1D4140",
"%. c #1F4F4C",
"&. c #204946",
"*. c #214D49",
"=. c #214D4A",
"-. c #224D4A",
";. c #23504C",
":. c #22514D",
">. c #22514E",
",. c #22524E",
"<. c #23524E",
"1. c #23534F",
"2. c #2B514A",
"3. c #29544F",
"4. c #315047",
"5. c #235551",
"6. c #245550",
"7. c #245551",
"8. c #255854",
"9. c #255955",
"0. c #285B55",
"q. c #295B56",
"w. c #285C56",
"e. c #295D57",
"r. c #215B58",
"t. c #255C58",
"y. c #27625D",
"u. c #2A625C",
"i. c #3D6258",
"p. c #276560",
"a. c #276661",
"s. c #286762",
"d. c #2A6E68",
"f. c #286F6A",
"g. c #2B736D",
"h. c #2B746E",
"j. c #2A746F",
"k. c #2C766F",
"l. c #2C7872",
"z. c #2C7973",
"x. c #2D7B74",
"c. c #2D7B75",
"v. c #2D7D76",
"b. c #2E7E77",
"n. c #6D5841",
"m. c #7E5E49",
"M. c #476457",
"N. c #7F6950",
"B. c #4D6E60",
"V. c #5D7564",
"C. c #5E7664",
"Z. c #7B7E66",
"A. c #804438",
"S. c #945443",
"D. c #80634C",
"F. c #81664E",
"G. c #9E7F5F",
"H. c #A47F5E",
"J. c #AB7D5E",
"K. c #2E8079",
"L. c #2E807A",
"P. c #2E827B",
"I. c #2F847D",
"U. c #9F805E",
"Y. c #A0815F",
"T. c #8F896B",
"R. c #A48664",
"E. c #A58765",
"W. c #A78966",
"Q. c #BD8061",
"!. c #B79B74",
"~. c #C28363",
"^. c #C28463",
"/. c #C48664",
"(. c #C49E75",
"). c #C89F75",
"_. c #CDA478",
"`. c #D1A579",
"'. c #2E8D87",
"]. c #2E8E87",
"[. c #2F8E87",
"{. c #308881",
"}. c #308B84",
"|. c #318E86",
" X c #318E87",
".X c #328F87",
"XX c #329088",
"oX c #329189",
"OX c #32918A",
"+X c #32938B",
"@X c #33938B",
"#X c #33938C",
"$X c #33948C",
"%X c #33958D",
"&X c #33968D",
"*X c #33968E",
"=X c #33978E",
"-X c #33978F",
";X c #34978F",
":X c #D6AE80",
">X c #DBB081",
",X c #DEB181",
"<X c #DDB182",
"1X c #DEB282",
"2X c #E3B483",
"3X c #E2B584",
"4X c #E2B685",
"5X c #E3B685",
/* pixels */
"                                                                                          ",
"                                                                                          ",
"                                                                                          ",
"                                        T ' ' P                                           ",
"                                F F F F C C C F F F F                                     ",
"                              F F F F F F F F F F F F F F                                 ",
"                            F F F F F F F F F F F F F F F F                               ",
"                          F F F F F F F F F F F F F F F F F F                             ",
"                        F F F F F F F F F F F F F F F F F F F F                           ",
"                      F F F F F F F F F F F F F F F F F F F F F                           ",
"                      F F F F F F F F F F F F F F F F F F F F F                           ",
"                      F F F F F F F F F F F F F F F F F F F F F F                         ",
"                      F F F F F F F F F F F F F F F F F F F F F F                         ",
"                      C F F F F F F F F F F F F F F F F F F F F C                         ",
"                  4XJ.^ C F F F F F F F F F F F F F F F F F F F X.`.                      ",
"                  1X1X@.C F F F F F F F F F F F F F F F F F F N H.4X                      ",
"                  1X1XO.t Q ! ! ! ! ! ! ! ! ! ! ! ! ! ! ! ! y t U.4X                      ",
"                  1X1XO.q q t t t t t t t t t t t t t t t t q q Y.4X                      ",
"                      _ q q q q q q q q q q q q q q q q q q q q n.                        ",
"                      q q q q q q q q q q q q q q q q q q q q q                           ",
"                        q q w w w w w w w w w w w w w w w w w q                           ",
"                        4.2.q.q.q.q.q.q.q.q.q.q.q.q.q.q.q.q.q.u.                          ",
"                        %X%X%X%X%X%X%X%X%X%X%X%X%X%X%X%X%X%X%X%X%X                        ",
"                      %X%X%X%X%X%X%X%X%X%X%X%X%X%X%X%X%X%X%X%X%X%X%X                      ",
"                    %X%X%X%X%X%X%X%X%X%X%X%X%X%X%X%X%X%X%X%X%X%X%X%X%X                    ",
"                    ].].].h.h.%X%X%X%X%X%X%X%X%X%X%X%X%X%X%X%X%X%X%X%X%X                  ",
"                    C.C.B.<.y.%X%XK.b.K.c.c.%X%X%Xc.c.K.K.K.%X|.K.%X%X%X%X                ",
"                    1X1X4X%.9.K.%Xc.c.c.c.%X%X%X%X%Xc.c.c.c.|.c.<.h.%X|.d.                ",
"                  1X1X1X  <.<.d.%X%X%X%X%X%X%X%X%X%X%X%X%X%XXXt.2.i.9.q.M.                ",
"                  1X1X1X  <.<.<.h.%X%X%X%X%X%X%X%X%X%X%X%X%Xc.<.  !.Z.T.:X                ",
"                  1X1X    <.=.<.<.h.|.%X%X%X%X%X%X%X%X%X%Xc.6.<.  )._.1X                  ",
"                  1X1X      p m =.<.9.K.%X%X%X%X%X%X%X|.h.6.<.&.                          ",
"                  1X1X1X      % n =.=.6.p.p.p.p.p.p.s.$.z c n p                           ",
"                  (.(.(.      a l x p 2 2 = = = = = = & % % % %                           ",
"                              a l l l l l = % % % % % % % % % %                           ",
"                              * a l l l x a % % % % % % % % % %                           ",
"                                = a = 2 2 * %     ` = % 4 O.M                             ",
"                                  4 N.W.E.E.G.    X.m.F.m.#.                              ",
"                                  A.Q.~.~.~.S.    C ( ( ( C                               ",
"                                  W T T T T E   C F C C F F                               ",
"                                  F C C C C F   F F F F F F                               ",
"                                    F ' { { P C F F F F F F                               ",
"                                    { ....| | F                                           ",
"                                    T { P F F F                                           ",
"                                      C F F F                                             "
};
