/* XPM */
static char *top03[] = {
/* columns rows colors chars-per-pixel */
"45 45 208 2 ",
"   c None",
".  c #0A0C11",
"X  c #0B0D12",
"o  c #0B0E12",
"O  c #0E0D11",
"+  c #0D0D12",
"@  c #0D0F13",
"#  c #0E0E12",
"$  c #0E0F13",
"%  c #0E1014",
"&  c #111217",
"*  c #151318",
"=  c #101418",
"-  c #101518",
";  c #13141A",
":  c #14151B",
">  c #15161C",
",  c #16171E",
"<  c #16171F",
"1  c #13181C",
"2  c #17181F",
"3  c #231517",
"4  c #2F241B",
"5  c #2B241C",
"6  c #2D251D",
"7  c #2E261D",
"8  c #2F261D",
"9  c #2E271E",
"0  c #2F271E",
"q  c #2E271F",
"w  c #2E281F",
"e  c #32231C",
"r  c #31251D",
"t  c #30271E",
"y  c #3B241E",
"u  c #151B20",
"i  c #131E20",
"p  c #171D23",
"a  c #181921",
"s  c #1B1B24",
"d  c #1C1C26",
"f  c #1D1E27",
"g  c #1E1E29",
"h  c #1E1F29",
"j  c #1E1F2A",
"k  c #152627",
"l  c #152628",
"z  c #152728",
"x  c #1D2029",
"c  c #162A2B",
"v  c #1B3B3B",
"b  c #1D3C3B",
"n  c #39312B",
"m  c #3C312B",
"M  c #3C332C",
"N  c #471F1E",
"B  c #4B1D1D",
"V  c #4E1E1E",
"C  c #4F1E1E",
"Z  c #4E1F1F",
"A  c #4F1F1F",
"S  c #501E1F",
"D  c #501F1F",
"F  c #511F1F",
"G  c #521F1F",
"H  c #541F1F",
"J  c #551F1F",
"K  c #571F1F",
"L  c #591F1F",
"P  c #5A1F1F",
"I  c #601E1E",
"U  c #611F1F",
"Y  c #621E1F",
"T  c #661F1F",
"R  c #671F1F",
"E  c #43221F",
"W  c #4A201F",
"Q  c #4B201F",
"!  c #482321",
"~  c #532221",
"^  c #542321",
"/  c #5E2120",
"(  c #592725",
")  c #5C2B27",
"_  c #403528",
"`  c #672020",
"'  c #632624",
"]  c #682020",
"[  c #6A2020",
"{  c #772020",
"}  c #782020",
"|  c #792020",
" . c #7D2020",
".. c #7F2020",
"X. c #75342D",
"o. c #6E3E34",
"O. c #1E413F",
"+. c #544236",
"@. c #5F4D39",
"#. c #6C493A",
"$. c #744539",
"%. c #774F3F",
"&. c #1E4341",
"*. c #214B47",
"=. c #214D49",
"-. c #224F4B",
";. c #204F4C",
":. c #22504C",
">. c #22514D",
",. c #23514D",
"<. c #21514E",
"1. c #23524E",
"2. c #23534F",
"3. c #23544F",
"4. c #235450",
"5. c #245551",
"6. c #245651",
"7. c #225B57",
"8. c #255A55",
"9. c #255B57",
"0. c #255C57",
"q. c #285953",
"w. c #285B55",
"e. c #295B56",
"r. c #295C56",
"t. c #275C58",
"y. c #265E5A",
"u. c #26635E",
"i. c #27635E",
"p. c #2C635C",
"a. c #266661",
"s. c #276661",
"d. c #286661",
"f. c #296A65",
"g. c #2B736D",
"h. c #2B756F",
"j. c #2A7671",
"k. c #2C7670",
"l. c #2C7771",
"z. c #2C7871",
"x. c #2C7872",
"c. c #2C7972",
"v. c #2D7C75",
"b. c #2E7E77",
"n. c #2E7F78",
"m. c #2E7F79",
"M. c #6D5841",
"N. c #795342",
"B. c #406257",
"V. c #436257",
"C. c #587463",
"Z. c #5D7564",
"A. c #5D7664",
"S. c #81654E",
"D. c #81664E",
"F. c #9E634D",
"G. c #A47F5E",
"H. c #AB7D5E",
"J. c #BC7E5F",
"K. c #2E8079",
"L. c #2E817A",
"P. c #2E827B",
"I. c #2F847D",
"U. c #2F857E",
"Y. c #2F867F",
"T. c #7E8067",
"R. c #9F805E",
"E. c #A0815F",
"W. c #868468",
"Q. c #A08362",
"!. c #A48664",
"~. c #A48764",
"^. c #C28363",
"/. c #C28463",
"(. c #C39C73",
"). c #C49E75",
"_. c #CAA277",
"`. c #C4A47B",
"'. c #C8A379",
"]. c #D1A579",
"[. c #D9AD7E",
"{. c #2E8E87",
"}. c #2E8F88",
"|. c #308982",
" X c #308A83",
".X c #318B84",
"XX c #318C84",
"oX c #318D86",
"OX c #318F87",
"+X c #328F87",
"@X c #328F88",
"#X c #32928A",
"$X c #33938B",
"%X c #33938C",
"&X c #33948C",
"*X c #33958D",
"=X c #33968D",
"-X c #33968E",
";X c #33978E",
":X c #33978F",
">X c #DBB081",
",X c #DDB182",
"<X c #DEB282",
"1X c #E0B383",
"2X c #E4B583",
"3X c #E2B584",
"4X c #E2B685",
"5X c #E3B685",
/* pixels */
"                                                                                          ",
"                                                                                          ",
"                                                                                          ",
"                                          L ` ` U                                         ",
"                                    D D D D C C C D D D D                                 ",
"                                D D D D D D D D D D D D D D                               ",
"                              D D D D D D D D D D D D D D D D                             ",
"                            D D D D D D D D D D D D D D D D D D                           ",
"                          D D D D D D D D D D D D D D D D D D D D                         ",
"                          D D D D D D D D D D D D D D D D D D D D D                       ",
"                          D D D D D D D D D D D D D D D D D D D D D                       ",
"                        D D D D D D D D D D D D D D D D D D D D D D                       ",
"                        D D D D D D D D D D D D D D D D D D D D D D                       ",
"                        C D D D D D D D D D D D D D D D D D D D D C                       ",
"                      ].o.D D D D D D D D D D D D D D D D D D D C / H.3X                  ",
"                      3XG.N D D D D D D D D D D D D D D D D D D C #.>X>X                  ",
"                      3XR.t y W W W W W W W W W W W W W W W W E t @.>X>X                  ",
"                      3XE.0 0 t t t t t t t t t t t t t t t t 0 0 @.>X>X                  ",
"                        M.0 0 0 0 0 0 0 0 0 0 0 0 0 0 0 0 0 0 0 0 _                       ",
"                          0 0 0 0 0 0 0 0 0 0 0 0 0 0 0 0 0 0 0 0 0                       ",
"                          0 w w w w w w w w w w w w w w w w w w 0                         ",
"                            e.e.e.e.e.e.e.e.e.e.e.e.e.e.e.e.e.e.p.                        ",
"                        *X*X*X*X*X*X*X*X*X*X*X*X*X*X*X*X*X*X*X*X*X*X                      ",
"                      *X*X*X*X*X*X*X*X*X*X*X*X*X*X*X*X*X*X*X*X*X*X*X*X                    ",
"                    *X*X*X*X*X*X*X*X*X*X*X*X*X*X*X*X*X*X*X*X*X*X*X*X*X                    ",
"                    *X*X*X*X*X*X*X*X*X*X*X*X*X*X*X*X*X*X*X*X@Xf.K.}.{.{.                  ",
"                  *X*X*X|.K.*X|.K.K.K.z.K.*X*X|.k.K.K.m.K.*X|.4.e.A.A.A.                  ",
"                  k.*X|.a.4.|.K.z.z.z.K.*X*X*X*X|.z.z.z.m.*Xh.2.  3X>X>X                  ",
"                  V.0.y.V.2.f.*X*X*X*X*X*X*X*X*X*X*X*X*X*X@Xy.2.    >X>X                  ",
"                  `.T.W.'.2.0.K.*X*X*X*X*X*X*X*X*X*X*X*X@Xd.2.2.    >X>X>X                ",
"                  3X[._.(.2.2.0.Y.*X*X*X*X*X*X*X*X*X*X|.d.2.4.2.    >X>X>X                ",
"                          -.&.2.y.z.|.*X*X*X*X*X*X*Xh.4.2.2.O.c     >X>X>X                ",
"                          *.i l l k v i.a.a.a.a.a.i.-.-.-.v = +     >X>X>X                ",
"                            % + + + + = = = = = = 1 i i i x d =     (.(.                  ",
"                            + + + + + + + + + + & d h h h h d =                           ",
"                              + + + + + + + + + = h x x h d =                             ",
"                              3 +.m + + m !     + = i 1 d =                               ",
"                                $.N.D.D.N.`     ~.~.~.~.m =                               ",
"                                  ~ ) ) ~ C   X.J.^.^.^.F./                               ",
"                                D D D C D D   ..U U U U U ..                              ",
"                                D D D D D D D   C C C C D                                 ",
"                                  D D D D D D D ` [ [ L C                                 ",
"                                            D ` { ....{ D                                 ",
"                                              D D D [ [ L                                 ",
"                                                D D C C                                   "
};
