/* XPM */
static char *v1[] = {
/* columns rows colors chars-per-pixel */
"45 45 256 2 ",
"   c None",
".  c #313A10",
"X  c #323A10",
"o  c #444F1A",
"O  c #4A551E",
"+  c #4E5920",
"@  c #576325",
"#  c #596626",
"$  c #5B6827",
"%  c #5E6B28",
"&  c #5E6C29",
"*  c #606E2A",
"=  c #65732C",
"-  c #65732D",
";  c #67762E",
":  c #6A782F",
">  c #6A7930",
",  c #6B7A30",
"<  c #6F7E32",
"1  c #6A665E",
"2  c #6C675D",
"3  c #6F685C",
"4  c #7A6D57",
"5  c #7D6C56",
"6  c #7D6E56",
"7  c #776C58",
"8  c #5C5F65",
"9  c #5E6064",
"0  c #616262",
"q  c #626262",
"w  c #636262",
"e  c #676460",
"r  c #BF643A",
"t  c #C96536",
"y  c #CA6436",
"u  c #C36339",
"i  c #C0653A",
"p  c #D76530",
"a  c #ED6727",
"s  c #E3662B",
"d  c #E6662A",
"f  c #F06626",
"g  c #FB6721",
"h  c #FD6720",
"j  c #8E6B4E",
"k  c #8E6E4E",
"l  c #98644A",
"z  c #956A4C",
"x  c #8B754F",
"c  c #9D7847",
"v  c #9C7C47",
"b  c #9F7E46",
"n  c #95744B",
"m  c #96754A",
"M  c #93794B",
"N  c #977B49",
"B  c #997949",
"V  c #9A7A48",
"C  c #8C6450",
"Z  c #8A6851",
"A  c #896B50",
"S  c #896B51",
"D  c #A36346",
"F  c #A66445",
"G  c #AA6443",
"H  c #A96344",
"J  c #738334",
"K  c #748335",
"L  c #7A8B38",
"P  c #7C8D39",
"I  c #7E8F3A",
"U  c #87993F",
"Y  c #AF853F",
"T  c #B7893B",
"R  c #B78A3B",
"E  c #B4883C",
"W  c #B98A3A",
"Q  c #BFB33E",
"!  c #E99416",
"~  c #EA9516",
"^  c #EB9516",
"/  c #EB9616",
"(  c #EC9616",
")  c #ED9716",
"_  c #EC9717",
"`  c #ED9816",
"'  c #EE9917",
"]  c #EF9917",
"[  c #EF9A16",
"{  c #EF9A17",
"}  c #F09A16",
"|  c #F09B16",
" . c #F09B17",
".. c #F19C17",
"X. c #F19D17",
"o. c #F29C17",
"O. c #F29D17",
"+. c #F39E17",
"@. c #F49F17",
"#. c #F59F17",
"$. c #F29D18",
"%. c #F39F18",
"&. c #F4A018",
"*. c #F5A018",
"=. c #F6A118",
"-. c #F6A218",
";. c #F7A218",
":. c #F3A51F",
">. c #F7A71D",
",. c #F5A61E",
"<. c #F7A71E",
"1. c #F8A418",
"2. c #F9A418",
"3. c #F8A419",
"4. c #F9A419",
"5. c #F9A519",
"6. c #FAA519",
"7. c #FAA619",
"8. c #FBA719",
"9. c #FCA719",
"0. c #F8A71D",
"q. c #FCA819",
"w. c #FDA819",
"e. c #FDA919",
"r. c #FFAA19",
"t. c #FFAB19",
"y. c #FDA81A",
"u. c #FDA91A",
"i. c #FCA91B",
"p. c #FDA91B",
"a. c #FDAA1B",
"s. c #FEAA1A",
"d. c #FFAA1A",
"f. c #FEAB1A",
"g. c #FFAB1A",
"h. c #FEAA1B",
"j. c #FFAD18",
"k. c #FFAC19",
"l. c #FDAC1B",
"z. c #FFAC1A",
"x. c #F9A81D",
"c. c #FAA91C",
"v. c #FBA91C",
"b. c #FCAB1C",
"n. c #FBAC1C",
"m. c #FBAC1D",
"M. c #F8AC1E",
"N. c #F9AC1E",
"B. c #FCAC1C",
"V. c #FDAC1C",
"C. c #D3972E",
"Z. c #D9992B",
"A. c #DB9B2A",
"S. c #DE9B29",
"D. c #DF9C28",
"F. c #D8992C",
"G. c #C08D37",
"H. c #C28F36",
"J. c #C79134",
"K. c #C99233",
"L. c #CB9332",
"P. c #CF9530",
"I. c #CE9431",
"U. c #E69F25",
"Y. c #E59F26",
"T. c #C2B53F",
"R. c #C9BA3F",
"E. c #D2B133",
"W. c #DBB533",
"Q. c #E7A025",
"!. c #EAA123",
"~. c #EBA223",
"^. c #EDA222",
"/. c #EFA421",
"(. c #E9A024",
"). c #E9A124",
"_. c #E8A025",
"`. c #EFAD23",
"'. c #E9AE26",
"]. c #E9AE27",
"[. c #EAAE26",
"{. c #EEAD24",
"}. c #F2A520",
"|. c #F1AD22",
" X c #F1AE23",
".X c #F1AF23",
"XX c #F3AE22",
"oX c #F3AF22",
"OX c #F2AE23",
"+X c #F3AE23",
"@X c #F4AE22",
"#X c #F4AF22",
"$X c #F1AF24",
"%X c #899C41",
"&X c #A78142",
"*X c #A78242",
"=X c #AC8540",
"-X c #AD8540",
";X c #8FA244",
":X c #90A345",
">X c #92A545",
",X c #92A546",
"<X c #92A646",
"1X c #94A746",
"2X c #95A847",
"3X c #96AA48",
"4X c #97AA48",
"5X c #99AD49",
"6X c #9AAE4A",
"7X c #9BAF4A",
"8X c #9BAF4B",
"9X c #9CB04B",
"0X c #9DB14B",
"qX c #9EB24C",
"wX c #A0B54D",
"eX c #A2B64E",
"rX c #A2B74E",
"tX c #A8B64B",
"yX c #AAB64A",
"uX c #A3B84F",
"iX c #B0B94A",
"pX c #B5BF4D",
"aX c #B6BF4D",
"sX c #A4BA50",
"dX c #A5BA50",
"fX c #A5BB50",
"gX c #A6BB50",
"hX c #A6BB51",
"jX c #A7BD51",
"kX c #A6BD52",
"lX c #A7BD52",
"zX c #A8BD52",
"xX c #A8BE52",
"cX c #A9BE52",
"vX c #A9BF52",
"bX c #C7BA41",
"nX c #B2C04F",
"mX c #B3C04F",
"MX c #AAC053",
"NX c #ABC053",
"BX c #ABC153",
"VX c #AAC154",
"CX c #ABC154",
"ZX c #ABC254",
"AX c #ABC255",
"SX c #AAC355",
"DX c #ABC355",
"FX c #ACC254",
"GX c #ACC354",
"HX c #ADC354",
"JX c #ACC255",
"KX c #ACC355",
"LX c #ADC355",
"PX c #ADC455",
"IX c #AEC455",
"UX c #B2C050",
/* pixels */
"                                                                                          ",
"                                                                                          ",
"                                                                                          ",
"                                                                                          ",
"                                                                                          ",
"                                                                                          ",
"                                                                                          ",
"                                                                                          ",
"                                                                                          ",
"                                                                                          ",
"                                                                                          ",
"                                                                                          ",
"                                                                                          ",
"                                                                                          ",
"                      ! ! ! ! &.d.d.d.d.d.d.d.d.d.d.d.d.d.d.d.d.d.                        ",
"                    ! ! ! ! %.d.d.|.{.{.{.{.{.{.{.{.{.{.{.{.{.{.d.d.                      ",
"                    ! ! ! ! d.d.E.yXyXyXyXyXyXyXyXyXyXyXyXyXyXyXQ d.d.                    ",
"                    ! ! ! ` d.d.T.kXcXcXcXcXcXcXcXcXcXcXcXcXcXkXaX|.d.                    ",
"                    ! ! ! ! d.d.bXJXJXkXwXcXJXJXJXJXJXJXuXkXJXJXaX|.d.                    ",
"                    ! ! ! ` d.d.bXJX<X& & 3XJXJXJXJXJXkX: & %XJXmX|.d.                    ",
"                    ! ! ! ` d.d.bXJX0X<X<XkXJXJXJXJXJXJX8X<X8XJXaX|.d.                    ",
"                    ! ! ! ! d.d.bXJXkX, + U JXJXJXJXJXkXJ $ ;XJXaX|.d.                    ",
"                    ! ! ! ! d.d.bXJXwXO . = JXJXJXJXJX8Xo . , JXaX|.d.                    ",
"                    ! ! ! ! d.d.bXJXJXI = <XJXJXJXJXJXcXI = 3XJXaX|.d.                    ",
"                    ! ! ! ` d.d.bXJXJXJXJXJX<XI wX0XJ 0XJXJXJXJXaX|.d.                    ",
"                    ! ! ! ` d.d.bXJXJXJXJXJX8X& # @ : kXJXJXJXJXaX|.d.                    ",
"                    ! ! ! ` d.d.bXJXJXJXJXJXJXuX<X2XcXJXJXJXJXJXaX|.d.                    ",
"                    ! ! ! ` d.d.bXJXJXJXJXJXJXJXJXJXJXJXJXJXJXJXaX|.d.                    ",
"                    ! ! ! ` d.d.W.mXmXmXUXUXmXmXUXUXUXUXmXmXmXUXR.d.d.                    ",
"                    ! ! ! ! d.d.d.|.|.|.|.|.|.|.|.|.|.|.|.|.|.|.d.d.0.                    ",
"                  o.` ` ! ` d.d.d.d.0.~.~.d.d.d.d.d.&.Q.~.d.d.d.d.d.0.o.                  ",
"                  o.o.` ! ` d.d.d.d.L.3 7 Y.d.d.d.Q.m A A G.d.d.d.d.0.o.                  ",
"                  *.o.o.! ! d.d.d.d.J.0 0 G.D.}.d.*XH a p A D.d.d.d.0.o.                  ",
"                  &.&.o.! ! d.d.D.x 4 0 0 1 0 W d.b r g a C k b D.d.d.&.                  ",
"                  0.0.o.! ` d.d.L.0 9 0 0 0 0 Y d.L.z i D H d i m }.d.0.                  ",
"                d.d.d.&.! ` d.d.D.M M 1 0 M L.~.d.d.C.=X4 y h d k Y.d.d.d.                ",
"                d.d.d.d.o.! d.d.d.d.~.4 8 =Xd.d.d.d.d.d.E l y D B &.d.d.d.                ",
"              d.d.d.d.d.0.` 0.d.d.d.>.E b L.d.d.d.d.d.d.&.E B *X~.d.d.d.d.d.              ",
"              d.d.d.d.d.0.! &.d.d.d.d.d.d.d.d.d.d.d.d.d.d.d.d.d.d.d.d.d.d.d.              ",
"              d.d.d.d.d.0.! ! &.d.d.d.d.d.d.d.d.d.d.d.d.d.d.d.d.d.d.d.d.d.d.              ",
"                d.d.d.d.        ` o.0.            d.0.`           d.d.d.d.                ",
"                                &.&.&.            0.` o.0.d.                              ",
"                            d.d.d.d.d.d.          o.&.d.d.d.d.d.                          ",
"                            d.d.d.d.d.d.          &.d.d.d.d.d.d.                          ",
"                          d.d.d.d.d.d.d.d.        d.d.d.d.d.d.d.d.                        "
};
