/* XPM */
static char *v2[] = {
/* columns rows colors chars-per-pixel */
"45 45 237 2 ",
"   c None",
".  c #313910",
"X  c #333C11",
"o  c #363E12",
"O  c #3A4314",
"+  c #3A4315",
"@  c #3A4415",
"#  c #3B4515",
"$  c #3F4918",
"%  c #424C19",
"&  c #46511B",
"*  c #4C581F",
"=  c #546023",
"-  c #5B6827",
";  c #5B6927",
":  c #5E6B28",
">  c #5F6C29",
",  c #616E2A",
"<  c #62702B",
"1  c #6A782F",
"2  c #6B7930",
"3  c #67655F",
"4  c #6F685C",
"5  c #7A6D57",
"6  c #71695B",
"7  c #746A5A",
"8  c #776C58",
"9  c #5B5F65",
"0  c #5C5F65",
"q  c #5D6064",
"w  c #606163",
"e  c #616163",
"r  c #616262",
"t  c #626262",
"y  c #B4643F",
"u  c #BF653A",
"i  c #C76437",
"p  c #C16439",
"a  c #D06433",
"s  c #D26532",
"d  c #E6662A",
"f  c #E0652C",
"g  c #F66723",
"h  c #FA6721",
"j  c #F96722",
"k  c #FA6722",
"l  c #8D6C4F",
"z  c #96654B",
"x  c #9B6649",
"c  c #99644A",
"v  c #93694C",
"b  c #926B4D",
"n  c #906A4E",
"m  c #8A754F",
"M  c #8B754F",
"N  c #8B764F",
"B  c #8C754F",
"V  c #8C764E",
"C  c #8D764E",
"Z  c #9D7747",
"A  c #96744A",
"S  c #93794B",
"D  c #987849",
"F  c #997949",
"G  c #987B49",
"H  c #816B54",
"J  c #886B51",
"K  c #896C51",
"L  c #827153",
"P  c #A06447",
"I  c #A26447",
"U  c #AF6441",
"Y  c #728234",
"T  c #738334",
"R  c #788937",
"E  c #798A38",
"W  c #7C8D39",
"Q  c #7D8E3A",
"!  c #7F903B",
"~  c #80913B",
"^  c #83943D",
"/  c #86983F",
"(  c #87993F",
")  c #AD853F",
"_  c #B1873D",
"`  c #B2873D",
"'  c #B0863E",
"]  c #B1873E",
"[  c #B4873C",
"{  c #BB8D39",
"}  c #BCB33F",
"|  c #E89415",
" . c #E99415",
".. c #E99416",
"X. c #E99516",
"o. c #EA9516",
"O. c #EB9516",
"+. c #EB9616",
"@. c #EB9716",
"#. c #EC9716",
"$. c #EC9717",
"%. c #ED9817",
"&. c #EE9916",
"*. c #EF9A16",
"=. c #EE9A17",
"-. c #F09B17",
";. c #F19C17",
":. c #F19D17",
">. c #F29C17",
",. c #F29E17",
"<. c #F29D18",
"1. c #F39F18",
"2. c #F5A017",
"3. c #F6A118",
"4. c #F6A218",
"5. c #F7A218",
"6. c #F3A51F",
"7. c #F5A61F",
"8. c #F6A61E",
"9. c #F6A71E",
"0. c #F8A318",
"q. c #F8A419",
"w. c #F9A519",
"e. c #FAA619",
"r. c #FBA719",
"t. c #FCA719",
"y. c #F6AC1F",
"u. c #FCA819",
"i. c #FDA919",
"p. c #FEA919",
"a. c #FFAA19",
"s. c #FFAB19",
"d. c #FCA91B",
"f. c #FEA91A",
"g. c #FDAA1B",
"h. c #FEAA1A",
"j. c #FFAA1A",
"k. c #FEAB1A",
"l. c #FFAB1A",
"z. c #FEAA1B",
"x. c #FFAC18",
"c. c #FFAC19",
"v. c #FFAC1A",
"b. c #F8A81D",
"n. c #F9A81D",
"m. c #FAA81C",
"M. c #FAA91C",
"N. c #FBA91C",
"B. c #F9AC1D",
"V. c #F8AC1E",
"C. c #D4972D",
"Z. c #DF9D28",
"A. c #DE9C29",
"S. c #D89A2C",
"D. c #C38F35",
"F. c #CA9232",
"G. c #CE9430",
"H. c #CE9530",
"J. c #CF9530",
"K. c #E29D27",
"L. c #E39E27",
"P. c #E09D28",
"I. c #DDB431",
"U. c #E7A025",
"Y. c #EEA221",
"T. c #EFA321",
"R. c #ECA223",
"E. c #EEA322",
"W. c #EEAD23",
"Q. c #EDAD24",
"!. c #EFAF25",
"~. c #F0A421",
"^. c #F3A520",
"/. c #F0AD22",
"(. c #F1AD22",
"). c #F6AD20",
"_. c #F7AD20",
"`. c #F4AE21",
"'. c #F1AF24",
"]. c #F0AF25",
"[. c #E6B22B",
"{. c #E0B02C",
"}. c #E0B32F",
"|. c #E2B32E",
" X c #E6B22C",
".X c #F0B024",
"XX c #F1B024",
"oX c #F0B025",
"OX c #889A40",
"+X c #8C9E42",
"@X c #A58143",
"#X c #A78042",
"$X c #AA8441",
"%X c #8FA244",
"&X c #90A244",
"*X c #90A344",
"=X c #91A445",
"-X c #92A646",
";X c #95A847",
":X c #96A947",
">X c #96AA48",
",X c #97AB48",
"<X c #9AAE4A",
"1X c #A0B54D",
"2X c #A2B74E",
"3X c #ABB649",
"4X c #AAB64A",
"5X c #AABA4E",
"6X c #B6B443",
"7X c #BABE4A",
"8X c #A4BA50",
"9X c #A5BA50",
"0X c #A5BB50",
"qX c #A6BB50",
"wX c #A7BC51",
"eX c #A7BD51",
"rX c #A7BD52",
"tX c #A8BE52",
"yX c #A9BE52",
"uX c #A9BF52",
"iX c #A9BF53",
"pX c #AABF53",
"aX c #C1BC45",
"sX c #AAC053",
"dX c #ABC153",
"fX c #ABC154",
"gX c #ACC154",
"hX c #ACC254",
"jX c #ACC354",
"kX c #ADC354",
"lX c #ACC355",
"zX c #ADC355",
"xX c #ADC455",
"cX c #AEC455",
"vX c #AFC555",
"bX c #B0C051",
"nX c #B0C151",
/* pixels */
"                                                                                          ",
"                                                                                          ",
"                                                                                          ",
"                                                                                          ",
"                                                                                          ",
"                                                                                          ",
"                                                                                          ",
"                                                                                          ",
"                                                                                          ",
"                                                                                          ",
"                                                                                          ",
"                                                                                          ",
"                                                                                          ",
"                        ......%.w.s.s.s.s.s.s.s.s.s.s.s.s.s.s.s.s.                        ",
"                      ........w.s.s./.Q.Q.Q.Q.Q.Q.Q.Q.Q.Q.Q.Q./.s.s.                      ",
"                      ......:.s.y.} 3X3X3X3X3X3X3X3X3X3X3X3X3X3X6XQ.s.                    ",
"                    ........1.s.Q.5XrXtXtXtXtXtXtXtXtXtXtXtXtXtXrX Xs.                    ",
"                    ........1.s.Q.bXfXfXrXrXfXfXfXfXfXfXtXrXfXfXfX Xs.                    ",
"                    ........1.s./.bXfXQ ; R fXfXfXfXfXfX^ ; R rXfXI.s.                    ",
"                    ........1.s./.bXtX-X-X<XfXfXfXfXfXfX1X-X-XrXfXI.s.                    ",
"                    ........1.s./.bXfX<X> 1 rXfXfXfXfXfX+X, Q fXfXI.s.                    ",
"                    ........1.s.Q.bXfXT X % >XfXfXfXfXfX> X * rXfXI.s.                    ",
"                    ........1.s.Q.bXfX>X< T 1X%X( ( +X;X+X> ! fXfX Xs.                    ",
"                    ........1.s.Q.bXfXfXtXfX>X& O O O = 1XtXfXfXfX Xs.                    ",
"                    ........1.s.XXbXfXfXfXfXtX2 O X % ^ fXfXfXfXfX Xs.                    ",
"                    ........1.s.XXbXfXfXfXfXfXrX( Q -XfXfXfXfXfXfX Xs.                    ",
"                    ........1.s.XXbXfXfXfXfXfXfXfXfXfXfXfXfXfXfXfX Xs.                    ",
"                    %.......1.s./.aXbXbXbXbXbXbXbXbXbXbXbXbXbXbX7X/.s.                    ",
"                w.7.:.......1.s.s./.XXXXXXXXQ.Q.Q.Q.XXXXXXXXXX!./.s.s.                    ",
"              s.w.7.:.......1.s.s.s.s.7.E.7.s.s.s.s.s.E.E.s.s.s.s.s.s.7.                  ",
"            s.s.w.7.........1.s.s.s.7.S 4 $Xs.s.s.s.[ J J #X7.s.s.s.s.w.w.s.s.            ",
"          s.s.s.s.w.........1.s.s.s.7.V 0 V K.U.s.P.v f d z { s.s.s.s.s.s.s.s.s.          ",
"          s.s.s.s.s.........1.s.s.$XV 6 e e 6 L 7.S.x g k U H Z D.s.s.s.s.s.s.s.s.        ",
"        s.s.s.s.s.s.........1.s.s.M 0 q e e e 6 E.^.A y u x s s v P.s.s.s.s.s.s.s.        ",
"        s.s.s.s.s.s.........1.s.s.[ V 5 e 6 [ J.s.s.K.[ V x k k I J.s.s.s.s.s.s.          ",
"          s.s.s.s.  ........1.s.s.s.s.[ q 6 E.s.s.s.s.s.S.v i p l K.s.  s.s.s.s.          ",
"            s.s.      ......1.s.s.s.s.C.G #X^.s.s.s.s.s.s.J.G G J.s.s.                    ",
"                      ......%.w.s.s.s.s.s.s.s.s.s.s.s.s.s.s.y.s.s.s.s.                    ",
"                        ......:.s.s.s.s.s.s.s.s.s.s.s.w.7.s.s.s.s.s.                      ",
"                            :.s.s.s.s.                1.w.s.s.w.:.%.%.                    ",
"                        %.:.w.s.s.s.                  s.s.s.w.........                    ",
"                        :.w.s.s.s.s.s.                s.s.7...........                    ",
"                          s.s.s.s.s.s.                s.7...........                      ",
"                            s.s.s.s.s.                  ..........                        ",
"                                s.s.s.                  ......                            "
};
