/* XPM */
static char *rock2[] = {
/* columns rows colors chars-per-pixel */
"45 45 125 2 ",
"   c None",
".  c #412E27",
"X  c #422F28",
"o  c #443129",
"O  c #4A352C",
"+  c #4E392F",
"@  c #4F3A30",
"#  c #533D32",
"$  c #574034",
"%  c #5B4336",
"&  c #5E4638",
"*  c #604739",
"=  c #644A3B",
"-  c #694E3E",
";  c #6C503F",
":  c #6D5241",
">  c #725543",
",  c #765945",
"<  c #7A5B46",
"1  c #7C5D49",
"2  c #7F604B",
"3  c #825D46",
"4  c #825E48",
"5  c #84624C",
"6  c #8D664D",
"7  c #8E684F",
"8  c #90674E",
"9  c #91684F",
"0  c #826653",
"q  c #896751",
"w  c #8D6A52",
"e  c #8A6D59",
"r  c #936D52",
"t  c #926F59",
"y  c #8F715B",
"u  c #957155",
"i  c #997456",
"p  c #9C7857",
"a  c #94745A",
"s  c #9A7759",
"d  c #98765B",
"f  c #99765B",
"g  c #9B765B",
"h  c #9A7559",
"j  c #9B775C",
"k  c #9A7559",
"l  c #95785C",
"z  c #97795C",
"x  c #9B7858",
"c  c #99795A",
"v  c #9C7858",
"b  c #9D7858",
"n  c #9E7958",
"m  c #9F7A59",
"M  c #9D795A",
"N  c #9C7A5A",
"B  c #9D7B5A",
"V  c #9E7A5A",
"C  c #9F7B5A",
"Z  c #987B5E",
"A  c #997C5E",
"S  c #9E7D5C",
"D  c #9C7B5B",
"F  c #A07C5B",
"G  c #A07B5E",
"H  c #A17B5E",
"J  c #A47B5E",
"K  c #A07E5C",
"L  c #A27E5C",
"P  c #A27F5D",
"I  c #A17D5C",
"U  c #917360",
"Y  c #957763",
"T  c #977763",
"R  c #937562",
"E  c #9B7A61",
"W  c #9C7F60",
"Q  c #9A7965",
"!  c #997A65",
"~  c #9C7C62",
"^  c #9C7C68",
"/  c #9E7E69",
"(  c #A07F62",
")  c #A47E61",
"_  c #A07E68",
"`  c #9F805F",
"'  c #A3815E",
"]  c #A3815F",
"[  c #A4825E",
"{  c #A5835F",
"}  c #A4825E",
"|  c #9D8061",
" . c #9E8161",
".. c #9E8161",
"X. c #A38163",
"o. c #A48062",
"O. c #A28065",
"+. c #A28664",
"@. c #A38765",
"#. c #A78565",
"$. c #A58562",
"%. c #A98465",
"&. c #A88566",
"*. c #A88762",
"=. c #A48865",
"-. c #A48866",
";. c #A58866",
":. c #A58966",
">. c #A68966",
",. c #A68A67",
"<. c #A78A67",
"1. c #A58966",
"2. c #AB8967",
"3. c #AD8967",
"4. c #AC8C65",
"5. c #A2816C",
"6. c #A4836D",
"7. c #A3836B",
"8. c #A98B68",
"9. c #AB8B68",
"0. c #AC8968",
"q. c #AC8A68",
"w. c #AD8B68",
"e. c #B18C6A",
"r. c #AF9067",
/* pixels */
"                                % o o X X o . . X . X X X X o o X X X                     ",
"              X o O # # % % % # > - $ # & - # + + + + + + # * % # # O # O o X o o         ",
"          X o % - - - - - - - - , , : : : ; - - : : ; > < 1 2 < > : : 2 - % # * - o       ",
"        X X X + & - - > < 4 6 w r r u v u a u r u k k k v v u v u r r r 5 4 > : * o X     ",
"      @ O X o + - < 6 6 6 6 8 8 8 r r r 8 8 u v u r r r 8 6 6 6 6 6 6 4 4 6 6 < - # o X   ",
"    X - : # - 5 7 7 w w w u J v r u u r 5 q r v v v v v r r r 8 6 6 6 0 U E r 6 < - + X X ",
"  X o $ - 1 r r r J &.&.@.9.9.3.k u v r e ^ E A v v v v v v u r r 8 6 a 6._ r 6 6 5 - o X ",
"  X # > w r 6 6 k 9.:.:.:.:.:.:.9.J v a E 6.@.J k A J A v v v v r r r r a r 6 6 6 6 ; + . ",
"  o - u 6 3 5 6 a :.:.@.E A  .:.:.3.k k E @.[ [ A A J A v J A v v r r 8 8 6 6 6 6 6 : # X ",
"  O : r q U U q a :.:.:.@. .z A @.:.@.u [ [ [ [ A A [ J k J J A p v w r 8 8 6 6 6 8 , % o ",
"  O - 5 r E a a @.@.@.@.@.@.@.E A @.@.r J @.@.@.[ A [ J A [ [ J A A u w r 8 6 6 6 8 1 - O ",
"  O : w 6 6 5 w A @.@. .A z z A  . .@.r A 3.3.3.@.A @.[ A [ [ [ J A A u r r 6 6 6 r 5 # X ",
"  O 1 k 6 6 6 4 5 u E  .E A a y a A  .w u 3.3.3.3.A @.[ A [ [ [ [ [ J k w u w 6 6 r 5 + X ",
"  O < k 6 8 r 6 4 5 r A A A A A a a A w r 3.3.3.3.A 3.[ A &.@.@.[ [ J A u u r 6 6 r 1 O X ",
"  O > r 6 8 r v 7 3 3 5 6 w w r a a a 5 u 3.3.3.3.A 3.[ A 3.3.@.v u J J u u u 6 8 u : O X ",
"  O > r 6 w u v A u 6 3 3 3 3 3 5 6 5 5 [ 3.3.3.@.A 3.@.[ 3.3.@.w a ) [ a u u w r u - O X ",
". O 2 v 8 w u p A J [ v 7 6 3 3 3 3 6 A 3.3.3.3.A A 3.3.3.3.3.3.E 6.@.[ u A v w r u - O X ",
". O 5 v 8 r r A J [ [ &.3.[ [ A A [ 3.3.3.3.r.3.A :.r.3.3.3.3.3.@.3.@.A A J v w r k < O X ",
". + 5 v r u w k J [ [ &.3.3.3.3.3.3.3.3.r.3.3.` @.r.r.r.3.3.3.3.3.@.A A [ J A r r v u # . ",
". + 2 v r v u u [ [ [ 3.3.@.3.3.3.3.3.3.@.A ` 3.r.r.r.r.r.3.3.@.A A [ [ [ J A u u r k - o ",
"X + > k r v v r A [ @.3.3.A 3.3.3.3.r.3.` :.3.r.r.r.r.3.@.A A A @.3.&.[ [ J A v v r k > O ",
"X + : k r v p u a [ [ J @.A @.3.3.r.r.r.r.r.r.r.r.r.:.A z ` :.3.3.A a ) A J J k v v r % o ",
"X + : k u v A A k A w w A [ [ 3.3.r.r.r.r.r.r.r.r.r.@.@.3.3.3.:.a t &.e.A r J v v k w $ X ",
". # 1 v r v p J A u 0 e a [ [ 3.r.[ A @.r.r.r.r.r.r.r.r.3.3.A a k 3.9.e.k w u u k v w % X ",
"X + , v r v A A k w y ^ E @.@.3.3.A e ^ 3.r.r.r.r.r.3.3.e.e.3.9.9.@.@.e.w w w a E v u - o ",
"X + , u r v A A k A E 6.6.[ @.3.r.3.A @.3.r.r.r.3.A ) 9.3.:.:.:.@.z 9.) 5 r a E k v r % o ",
"X + , r r v k k v [ @.@.@.A @.3.3.r.3.3.r.r.r.@.w k 3.:.:.:.:.@.E A 3.a 5 u A u u v w $ o ",
"X O > r r v v u k [ [ &.3.[ A 3.3.r.3.3.3.r.@.w k 3.:. .@.:.@.A A E &.q 5 v k r r k 0 # o ",
"  o % 5 r r v u A [ [ [ 3.&.A A 3.3.3.3.3.3.u ) 3.:. .z @.A A  .z @.) 5 w A u r r r 5 # o ",
"  X O - 4 r v r A J [ [ [ 3.@.A z @.3.3.3.[ A @.@.@.A E  .a  .E a @.@.5 w A u r r k 1 # X ",
"  X o # - < u r p J [ [ [ [ 3.:.A A 3.3.3.A  . .E  .z  .E y E A A @.&.w 6 v v r k 1 - # X ",
"  . . @ - > r r v A J [ [ [ 3.3.@.A :.3.3.A A  .z A  . . .a z  . . .@.6 5 v v r w - % # X ",
"  o # , > < r r v A A J [ [ [ &.&.A [ 3.3.A r A A a A  .A a z  .E E r 4 5 v r r 2 * O o X ",
"  o % - > 6 6 r v v v A J [ [ [ @.[ A &.3.@.7 w A A a a a w A A A a 4 4 6 u r r 5 1 % X X ",
"  O % : 6 6 6 6 8 r w u A J [ [ [ [ [ @.&.&.A 6 7 a a t w a a a a w 3 3 r 8 6 r 5 ; * o X ",
"  O & 1 8 6 5 3 5 w a r u v A J [ [ [ [ [ [ [ p 5 5 w r u u a a u 5 3 6 6 3 4 6 6 - * + X ",
"  O - 5 8 6 5 3 0 U E k v v v v v A [ [ [ [ [ A u 6 3 3 5 6 w w 6 3 5 6 1 0 e w 6 > - # X ",
"  o & 1 8 6 6 4 0 E 6.E u v v v u r A J J J A 7 w k r 6 3 3 3 3 3 3 7 6 0 U ^ t 8 4 - # X ",
"  X # ; r 6 6 6 0 U ^ a r r u v v u u A A A k U E E A v r 7 6 6 6 8 8 6 a 6.6.a 6 > & O X ",
"  X O & 1 r 8 6 6 w r 6 6 8 r u v v v v v v k A E k v v v u r r 8 6 6 6 r E E r > - + X   ",
"    X + - 5 r r r 8 r r u k k a u u A A u u v v u r r r r r 8 8 6 6 6 6 6 r w , - @ X     ",
"      X + - ; 1 w r r w 5 , : - - * : a k u r u r r r r r r r r r r r r r 6 > : * X       ",
"        X o + > - % % < : + O + - % & : 0 w a u u r w w w w w 5 w 5 5 5 1 * # + O         ",
"          X o - # X o - % X X o + O O O O # - # # $ % % % - 1 % & % % % % o X .           ",
"              X X X X o o X X X X X X X X o o X X X o o o O - # O o o X X X               "
};
